<svg xmlns="http://www.w3.org/2000/svg" viewBox="0 0 2064.03 2672.38"><defs><style>.cls-1{fill:#ffbc00;}.cls-2{opacity:0.6;}.cls-3{fill:#fff;}.cls-4{fill:#000072;}.cls-5{opacity:0.3;}.cls-6{fill:#522d80;}.cls-7{fill:#390176;}.cls-8{opacity:0.55;}.cls-9{fill:#f56600;}</style></defs><g id="Layer_2" data-name="Layer 2"><g id="Layer_1-2" data-name="Layer 1"><polygon class="cls-1" points="979.8 126.22 737.5 1358.69 627.36 1367.23 495.11 1377.49 474.45 1088.51 697.41 18.25 880.74 25.89 979.8 126.22"/><g class="cls-2"><polygon class="cls-3" points="979.8 126.22 979.4 128.19 915.79 63.78 732.47 56.15 509.51 1126.41 527.28 1375.01 495.11 1377.49 474.45 1088.51 697.41 18.25 880.74 25.89 979.8 126.22"/></g><path class="cls-4" d="M495.13,1395.72a18.26,18.26,0,0,1-18.21-17l-20.67-289a18.39,18.39,0,0,1,.33-5l223-1070.25A18.24,18.24,0,0,1,698.16,0L881.49,7.65a18.26,18.26,0,0,1,12.23,5.42l99,100.33a18.26,18.26,0,0,1,4.92,16.34L755.42,1362.2a18.24,18.24,0,0,1-16.5,14.67l-242.38,18.79C496.06,1395.7,495.6,1395.72,495.13,1395.72Zm-2.3-306L512,1357.86l210.26-16.31L960,132.17,872.79,43.82,712.11,37.13Z"/><path class="cls-4" d="M627.4,1385.47a18.91,18.91,0,0,1-3.41-.32,18.24,18.24,0,0,1-14.54-21.32L862.8,22.5a18.25,18.25,0,1,1,35.86,6.77L645.31,1370.6A18.25,18.25,0,0,1,627.4,1385.47Z"/><g class="cls-5"><polygon class="cls-4" points="979.8 126.22 737.5 1358.69 627.36 1367.23 880.74 25.89 979.8 126.22"/></g><polygon class="cls-1" points="1364.97 289.27 848.16 1434.08 738.97 1417.3 607.86 1397.14 653.61 1111.07 1114.62 119.79 1291.38 169.01 1364.97 289.27"/><g class="cls-2"><polygon class="cls-3" points="1364.97 289.27 1364.13 291.1 1316.88 213.89 1140.12 164.68 679.11 1155.95 639.75 1402.07 607.86 1397.14 653.61 1111.07 1114.62 119.79 1291.38 169.01 1364.97 289.27"/></g><path class="cls-4" d="M848.18,1452.32a17.44,17.44,0,0,1-2.78-.21l-240.29-36.94a18.27,18.27,0,0,1-15.25-20.92l45.73-286.08a18.35,18.35,0,0,1,1.47-4.81l461-991.28a18.27,18.27,0,0,1,21.45-9.88l176.76,49.22a18.24,18.24,0,0,1,10.67,8.05l73.58,120.27a18.23,18.23,0,0,1,1.06,17L864.81,1441.58A18.27,18.27,0,0,1,848.18,1452.32ZM628.8,1381.88l208.45,32,507.1-1123.38-64.79-105.9-154.93-43.14-453.4,974.93Z"/><path class="cls-4" d="M739,1435.54a18.26,18.26,0,0,1-16.67-25.64L1274.69,161.61a18.25,18.25,0,0,1,33.38,14.77L755.68,1424.67A18.24,18.24,0,0,1,739,1435.54Z"/><g class="cls-5"><polygon class="cls-4" points="1364.97 289.27 848.16 1434.08 738.97 1417.3 1291.38 169.01 1364.97 289.27"/></g><polygon class="cls-1" points="567.69 343.76 680.04 1594.79 576.7 1633.82 452.6 1680.68 351.89 1409.04 266.36 319.15 444.5 275.17 567.69 343.76"/><g class="cls-2"><polygon class="cls-3" points="567.69 343.76 567.85 345.76 488.76 301.74 310.62 345.72 396.15 1435.6 482.8 1669.3 452.6 1680.68 351.89 1409.04 266.36 319.15 444.5 275.17 567.69 343.76"/></g><path class="cls-4" d="M452.62,1698.91A18.22,18.22,0,0,1,435.51,1687L334.77,1415.37a18.43,18.43,0,0,1-1.08-4.92L248.15,320.58A18.27,18.27,0,0,1,262,301.43l178.14-44a18.21,18.21,0,0,1,13.25,1.77l123.18,68.6a18.25,18.25,0,0,1,9.3,14.31l112.39,1251a18.23,18.23,0,0,1-11.73,18.7l-227.44,85.89A18.12,18.12,0,0,1,452.62,1698.91Zm-82.75-293.85,93.48,252,197.29-74.51L550.35,355,441.89,294.6,285.75,333.16Z"/><path class="cls-4" d="M576.69,1652a18.25,18.25,0,0,1-18.14-16.48L426.32,276.93a18.25,18.25,0,1,1,36.33-3.53L594.88,1632a18.25,18.25,0,0,1-16.4,19.93A17.87,17.87,0,0,1,576.69,1652Z"/><g class="cls-5"><polygon class="cls-4" points="567.69 343.76 680.04 1594.79 576.7 1633.82 444.5 275.17 567.69 343.76"/></g><polygon class="cls-1" points="1335.62 600.52 1269.65 1854.84 1161.82 1878.84 1032.34 1907.66 971.11 1624.49 1040.82 533.48 1223.39 515.17 1335.62 600.52"/><g class="cls-2"><polygon class="cls-3" points="1335.62 600.52 1335.49 602.52 1263.44 547.74 1080.87 566.04 1011.17 1657.06 1063.84 1900.67 1032.34 1907.66 971.11 1624.49 1040.82 533.48 1223.39 515.17 1335.62 600.52"/></g><path class="cls-4" d="M1032.35,1925.88a18.23,18.23,0,0,1-17.83-14.39l-61.25-283.16a18.41,18.41,0,0,1-.37-5l69.69-1091a18.24,18.24,0,0,1,16.39-17L1221.56,497a18.21,18.21,0,0,1,12.86,3.63L1346.64,586a18.22,18.22,0,0,1,7.18,15.48l-65.93,1254.32a18.24,18.24,0,0,1-14.26,16.85l-237.31,52.81A18.35,18.35,0,0,1,1032.35,1925.88ZM989.48,1623.1l56.83,262.73,205.86-45.8,64.7-1230.84L1218.05,534l-160,16.05Z"/><path class="cls-4" d="M1161.85,1897.07H1161A18.27,18.27,0,0,1,1143.6,1878l61.55-1363.66a18.25,18.25,0,0,1,36.46,1.65l-61.54,1363.65A18.26,18.26,0,0,1,1161.85,1897.07Z"/><g class="cls-5"><polygon class="cls-4" points="1335.62 600.52 1269.65 1854.84 1161.82 1878.84 1223.39 515.17 1335.62 600.52"/></g><polygon class="cls-1" points="2045.8 685.93 1565.97 1846.73 1456.31 1833.46 1324.61 1817.52 1361.16 1530.12 1790.14 524.57 1968.39 568.09 2045.8 685.93"/><g class="cls-2"><polygon class="cls-3" points="2045.8 685.93 2045.02 687.78 1995.31 612.13 1817.06 568.61 1388.09 1574.17 1356.64 1821.41 1324.61 1817.52 1361.16 1530.12 1790.14 524.57 1968.39 568.09 2045.8 685.93"/></g><path class="cls-4" d="M1566,1865a16.5,16.5,0,0,1-2.21-.14l-241.34-29.21a18.25,18.25,0,0,1-15.92-20.42l36.53-287.39a18.14,18.14,0,0,1,1.32-4.86l429-1005.55a18.25,18.25,0,0,1,21.11-10.57l178.26,43.52a18.28,18.28,0,0,1,10.93,7.71L2061,675.91a18.26,18.26,0,0,1,1.61,17l-479.8,1160.8A18.24,18.24,0,0,1,1566,1865Zm-220.94-63.38,209.36,25.35L2025.23,687.87,1957.08,584.1,1800.84,546l-421.89,989Z"/><path class="cls-4" d="M1456.32,1851.7a18.26,18.26,0,0,1-16.91-25.1L1951.47,561.23a18.25,18.25,0,1,1,33.83,13.7L1473.24,1840.29A18.26,18.26,0,0,1,1456.32,1851.7Z"/><g class="cls-5"><polygon class="cls-4" points="2045.8 685.93 1565.97 1846.73 1456.31 1833.46 1968.39 568.09 2045.8 685.93"/></g><polygon class="cls-1" points="1763.06 396.46 1415.51 1603.48 1305.05 1602.51 1172.4 1601.33 1176.71 1311.65 1491.01 264.57 1673 287.97 1763.06 396.46"/><g class="cls-2"><polygon class="cls-3" points="1763.06 396.46 1762.48 398.39 1704.66 328.74 1522.68 305.35 1208.38 1352.43 1204.67 1601.64 1172.4 1601.33 1176.71 1311.65 1491.01 264.57 1673 287.97 1763.06 396.46"/></g><path class="cls-4" d="M1415.53,1621.72h-.16l-243.1-2.16a18.23,18.23,0,0,1-18.09-18.51l4.28-289.68a18.67,18.67,0,0,1,.77-5L1473.52,259.32a18.22,18.22,0,0,1,19.81-12.85l182,23.39a18.29,18.29,0,0,1,11.72,6.45l90,108.49a18.21,18.21,0,0,1,3.49,16.7l-347.51,1207A18.24,18.24,0,0,1,1415.53,1621.72ZM1191,1583.23l210.88,1.87,341-1184.42-79.29-95.53L1504,284.64,1194.92,1314.45Z"/><path class="cls-4" d="M1305.08,1620.75a18.26,18.26,0,0,1-17.58-23.18L1655.42,283a18.25,18.25,0,0,1,35.15,9.84L1322.64,1607.41A18.25,18.25,0,0,1,1305.08,1620.75Z"/><g class="cls-5"><polygon class="cls-4" points="1763.06 396.46 1415.51 1603.48 1305.05 1602.51 1673 287.97 1763.06 396.46"/></g><path class="cls-6" d="M1666.28,1044.34,1249.43,2430.76a219.1,219.1,0,0,1-249.81,152.32L197.36,2434.27A219.13,219.13,0,0,1,18.76,2204l97-1424.15a91.77,91.77,0,0,1,108.33-84l189.25,35.1c49.74,9.23,86.07,51.78,88.12,102.32,7,172.92,132.45,324.27,309.81,357.17S1160,1127,1228.52,968.06c20-46.45,69.22-73.13,119-63.91L1610.54,953A71.87,71.87,0,0,1,1666.28,1044.34Z"/><path class="cls-7" d="M1039.94,2589.46a223.48,223.48,0,0,1-40.8-3.76L196.88,2436.88a221.74,221.74,0,0,1-180.77-233.1l97-1424.15a94.43,94.43,0,0,1,111.47-86.48l189.25,35.11c51,9.46,88.17,52.57,90.28,104.82,7.14,176.55,133.65,322.39,307.64,354.67s344.37-58.5,414.37-220.75c20.71-48,70.83-74.94,121.87-65.46L1611,950.34a74.52,74.52,0,0,1,57.79,94.77L1252,2431.53A221.45,221.45,0,0,1,1039.94,2589.46ZM207.33,696.89a89.1,89.1,0,0,0-89,83.09l-97,1424.17a216.44,216.44,0,0,0,176.43,227.5l802.26,148.81A216.15,216.15,0,0,0,1246.88,2430l416.85-1386.42a69.2,69.2,0,0,0-53.67-88L1347,906.77c-48.6-9-96.29,16.62-116,62.34A382,382,0,0,1,498.76,833.3c-2-49.76-37.35-90.8-85.94-99.81L223.57,698.38A89.21,89.21,0,0,0,207.33,696.89Z"/><g class="cls-8"><path class="cls-3" d="M98.85,2388.65A219.15,219.15,0,0,1,18.77,2204l97-1424.18a91.81,91.81,0,0,1,108.34-84l189.25,35.1A108,108,0,0,1,494.48,799a107.48,107.48,0,0,0-32-11.39l-189.26-35.1a91.78,91.78,0,0,0-108.34,84l-97,1424.16A218.22,218.22,0,0,0,98.85,2388.65Z"/></g><g class="cls-8"><path class="cls-3" d="M1668.36,1011.87a68.52,68.52,0,0,0-8.71-2.21l-263-48.83a108.19,108.19,0,0,0-119,63.91c-68.57,158.94-240,255.22-417.3,222.31A377.83,377.83,0,0,1,619.9,1093.18a377.5,377.5,0,0,0,191.35,97.17c177.27,32.9,348.73-63.37,417.3-222.3,20-46.45,69.2-73.12,118.91-63.88L1610.55,953A71.8,71.8,0,0,1,1668.36,1011.87Z"/></g><path class="cls-6" d="M1362.55,2650.4l-362.93-67.33a219.11,219.11,0,0,0,249.8-152.32L1666.3,1044.34A71.87,71.87,0,0,0,1610.55,953l341.09,63.27a91.81,91.81,0,0,1,71.17,116.7l-410.5,1365.13A219,219,0,0,1,1362.55,2650.4Z"/><path class="cls-7" d="M1402.86,2656.78a223.37,223.37,0,0,1-40.79-3.76l-362.93-67.34,1-5.23.09,0A216.23,216.23,0,0,0,1246.87,2430l416.88-1386.4a69.21,69.21,0,0,0-53.45-87.95l-.23,0,1-5.23.14,0,340.94,63.25a94.47,94.47,0,0,1,73.24,120.08l-410.5,1365.13A221.39,221.39,0,0,1,1402.86,2656.78Zm-39.82-9a216,216,0,0,0,246.72-150.49l410.5-1365.13a89.13,89.13,0,0,0-69.11-113.31l-313.87-58.23a74.55,74.55,0,0,1,31.57,84.48L1252,2431.52a221.5,221.5,0,0,1-204.15,157.79Z"/><g class="cls-5"><path class="cls-4" d="M1362.91,2650.49c-.13,0-.23,0-.36-.09l-362.47-67.26a219.06,219.06,0,0,0,249.34-152.39L1666.3,1044.34a71.93,71.93,0,0,0-25.49-78.1l253.76,47.09a91.79,91.79,0,0,1,71.17,116.7l-410.5,1365.13A219,219,0,0,1,1362.91,2650.49Z"/></g><path class="cls-4" d="M1040,2605.05a239.24,239.24,0,0,1-43.68-4L194,2452.21A237.35,237.35,0,0,1,.55,2202.73l97-1424.16A110,110,0,0,1,227.38,677.82l189.26,35.11c58.24,10.8,100.6,60,103,119.52,6.84,169.23,128.11,309,294.91,340s330.12-56.07,397.21-211.59c23.61-54.74,80.74-85.43,139-74.62L1613.87,935a90.11,90.11,0,0,1,69.88,114.6L1266.9,2436A237,237,0,0,1,1040,2605.05ZM207.32,712.48A73.51,73.51,0,0,0,133.93,781L37,2205.2a200.83,200.83,0,0,0,163.72,211.12L1003,2565.14a200.62,200.62,0,0,0,229-139.63L1648.8,1039.09h0a53.62,53.62,0,0,0-41.59-68.19l-263.07-48.8c-41.4-7.68-82,14.21-98.86,53.2a397.57,397.57,0,0,1-762.1-141.36c-1.71-42.44-31.82-77.44-73.2-85.12l-189.26-35.1A73,73,0,0,0,207.32,712.48Z"/><path class="cls-4" d="M1402.91,2672.38a239.47,239.47,0,0,1-43.7-4L996.29,2601a18.25,18.25,0,1,1,6.66-35.88l362.92,67.32a200.43,200.43,0,0,0,229-139.63l410.51-1365.16a73.56,73.56,0,0,0-57-93.51l-392-72.71a18.25,18.25,0,0,1,6.67-35.89l392,72.72a110.05,110.05,0,0,1,85.32,139.9l-410.5,1365.15A236.92,236.92,0,0,1,1402.91,2672.38Z"/><path class="cls-9" d="M889.87,1350.92c-.34.52-3,.88-3.35,1.44-1.48,2.6-.17,5.12-.2,7.17-1.11,0-1.91,1.55-2.34,1.63-3.82.56-8.09-2.45-12-2.19-2.08.1-5.63,3.67-7.83,3.72-4.8,0-6.77-3.44-11.19-1-2.13,1.09-8.36,13-9.89,15.7-1-.79-2,.09-3-.55s-2-3.91-3.32-4.73c-8.5-5.38-9.44,2.2-14.19,4.62-1.72.84-4.37.36-6.36.89,0,0-.21-3.1-.32-4.18,1.39-.87,4.93-1.47,5.7-3.07.48-1.07,0-3.06.69-4-.77-.85-1.66-.91-1.66-2.36-1.85-.34-4.28-.36-6-1.09-1.24,1.19-4.23,2.7-4.87,4.25-.32.65.05,2.39-.51,3-1,.92-5,1-5.53,2.08-2.26,4.25-.37,8.14.11,11.35l-2-.37c-1.53.21-5.4,4.91-5.39,7.27,0,.84,2.27,2.89,2.49,3.54s-.12,3.62.32,4.18c.72.87,2.31.52,2.83,1.55-2.41,3.45-2.54,5.14-4.73,9.44-.46-.44-2.44-.45-3-.55-1.66-6-2.65-4.09.09-12.35-.92-.65-2.65-3.35-3.49-3.73-2.87-1.36-7.25-.45-10-1.83-.91-.49-.94-3.91-2.28-4.54-1.07-.52-4.95-.1-4.19.27-1.57,1.9-3.41,3.68-5.22,6.25-.21.28-2,.37-2.18.64-.92,1.5-.63,4.87-2,5.81-2.14,1.35-5.13-.49-7.33.72-1.63.82-6.86,14.82-4.94,16.63,2.75,2.56,4.88,1,7.2.28,1.71-.56,1-1.81,1.65-3.83.65.34,2.84,1.56,2.84,1.56a45,45,0,0,0-2.21,6.81c-1.12,0-1.88,1.55-2.35,1.63-3.19.48-7.73-2.22-11-2l-1.35,1.81c-1.78.73-3.06-.49-5.15.09a133.59,133.59,0,0,1,5.21-12.46c-1.71-1.11-.46-.17-.66-2.17-4.73-1.25-8.69-3.59-12.34-.2-4.79,4.38-4.24,9.8-2.59,15-2.42,2-6.37,4.22-7.56,7.9-.39,1.15-.08,4-.86,5-.27.27-4.68,0-5.18.08-.64,1.88-1,4.39-2.21,6.82a23.14,23.14,0,0,1,3.83,1.72c.94,1.11.25,4.38,1.14,5.38-2.18-.47-13.56-1.48-16.54.07s-.77,12.31-2.77,16c-1.08,2-4.64,3.51-6.05,5.1-5.79,6.42-10.06,11.29-16.31,16.64-1.06.87-3.85,1.37-4.7,3.28-5.25,11.73,1.65,8.39,4.46,10.1.65.37,3.36,3.94,4.32,4.91-2.52,3.58-8.14,9-5.78,15.48.42,1.17,3.1,2.27,3.5,3.72s-1.54.47-1.53,2.83c0,6.06,6.52,7.38,12,8.38-.63.11-4.33,2.24-4.53,2.27-10.17,1.09-8-2.87-13.42,5.83-3.46-6.73-6.56-8.75-15.48-12.11-1,1.43-2.19,1.61-3.54,2.46,1,4.87.72,7.07,2.11,11.74-1.79.78-5.25,1.61-6.71,2.92s-1.45,3.7-2.87,4.64c-1.2.76-2.83-.28-4.19.28s-3.69,3.2-4.88,4.28c.28.76-.55,3.16-.7,4,4.86,2.21,5.36,2.87,11.87,3.18-.75,1,.13,1.9-.52,3l-2.18.64c-2.73,2.89-2,5.05-3.73,9.66.57.45,3.38,2.12,3.66,2.73,2.15,4.39,3.05,8,5.12,12.29-2.21,1-8,2.31-9.07,4.56-.83,1.63-.06,3.36-.87,5,2.51,1.17,7,2.92,9.52,4.83.55.38,1.62,3.13,2.49,3.54,1.68.76,3.31.12,5,.91-1,2.18-1.91,4.31-3.39,7.66-2.53-.36-2.49-2.45-5.85-2.09-.63,0-2.51,2.16-3.53,2.46,2.6,7.81-1.37,5.08,9,7.83.51,2.84,1.08,6.11,1.62,8.56l1,.19c0,4.37-2.33,5.46-2.74,9.84-.37,3.66,1.55,11.47,1.59,14.77,0,2.39-1.61,4.66-1.21,7,.06.43,1.6,1.22,1.66,2.36,8.82-1.45,2.21,2.18,8.89-3.56,1,.73,1.9-.15,3,.54.26.15,1.86,3.28,2.49,3.56,4.16,1.75,5.27-1,9,1.63,4.08,2.8-1.33,4.9-2.21,6.84-.51,1.07-.09,3-.7,4,6.49,6.63,8.69,10.2,19.67,11.83.8-1.28,1.65-3.53,2.88-4.66.95-.93,3.45-.54,4.37-1.28l-1.9,11c0,1.27,4.45,9.08,5.31,11.31,2.73.27,5.23.94,8,1.44.44-.59,2.08-3.63,2.7-3.65,9.36-.41,10.09,9.84,14.5,11.92,2.72,1.27,4.56.25,7.17.27.8,1.37.71,4.75,2.15,5.56,1,.54,3.07,0,4,.72.39-1,2.12-1.26,2.36-1.64.86-1.62,0-3.39.86-5-.89-.36-5.33-1.28-6.86-2.27s-1.55-6-3-6.73l-2-.37c-.37-1.2,1-2.88.69-4,.87-1,2.89-2.36,3.67-3.48,1.12,1.43,3.9,2.13,4.51,3.92.36,1-.83,2.89-.69,4,.13,1.61,2.66,3.33,3.32,4.74,2,0,4,1.17,6,1.08,3.59-.18,5.13-4,9.9-3.38,5.47.73,9.68,6.88,17.53,6.26,5.34-.46,5.23-7.26,8.72-8.76,3.94-1.71,8.54.92,13.36.34,1.19-.17,3.28-2,4.54-2.28.15-.87.15-3.32.68-4,.71-1,2.45-.28,3.36-1.47,4.44,2.36,9.82,6.73,15.68,4.91,1.4-.46,2.65-3.89,3.87-4.47s2.93.08,4.19-.28c1.06-.36,3.57-3,4.66-3.29,2.59-.82,4.93-.27,7.37-.73,0,0,2.09-4.46,2-5.83-.14-1.61-3.24-3.56-3.33-4.74-.26-3.08,1.72-2.3,1.86-4.82,1.59-.78,2.45-2.21,3.7-3.47,3.8,1.24,8.05,3.27,12,2.17,2.36-.7,2.1-3,3.87-4.46,2.37-2,7.28-3.1,10-4.38.12-3.34-.32-6.8.54-9.2.79-2.18,4.76-3.65,6-5.1,1.66-1.92,1.57-3.55,3-5.64-.32-.32-2.61-2.16-2.66-2.55-.29-1.24.89-1.83.51-3,9-4.22,11-7,2.4-14,6.47-2,12.14-4.24,18.55-5.92-.26-1.4.61-3.6.86-5-1.11-.77-2.48-3.18-3.5-3.72-3.8-2-6.48-1.05-8.64-3.63-.93-1.1,0-3.43-.14-5.19-2.38.37-1.05-3-1.32-4.36.16,0,5.51,1.38,3.83,1.72,6.55.42,17.91,1.68,13.71-7.82-.39-.88-3.56-1.91-3.67-2.74-.26-2.07,2.59-4.48,2.37-7.81-.21-2.65-3.85-3.83-4.32-4.91-1.51-3.5-2.28-4.57,2-5.82.69-6.93.28-6.72,4.72-9.46a14,14,0,0,1,3,.55c.36-1.1,1.06-5.71,2.2-6.82l6.49-1.91c-.65-4.44-1.56-8.76-.12-11.37.42-.75,3.4-2.72,3.69-3.44.79-2.25-1.11-1.73-.49-3.19-1.16,0-4.06.29-4.18.27-3.92,8-3.46,11-7.66,2.74-2.69-.17-2.54.85-4.35,1.26,0,0,1-6.3,1.37-8,8.33-.39,5.09.44,10-4.36.77.79,2-.06,3,.55s.65,3.69,1.28,4.36c4.09,4.12,10.68,3,15,2.73-.14-2,1.23-4,1-6-.16-1.22-3.08-4.17-3.15-5.73-.09-1.18.38-5.6,1.86-4.81l.34-2c-.13-.67-2.43-3.21-2.49-3.54-.14-.64.66-2.43.51-3,8-1.9,9-2.29,13.86-8.82l2.34-1.63c.7-2.12-1.1-4.16.2-7.18.66-1.68,4.35-3.23,5-5.26s-.89-5,.36-8.17c.75-1.92,5.44-4.54,6.16-6.08,1-2.08.46-4.84,1.2-7-5.87-5-5.83-3.35-4.92-13.25,1.78-.74.75-.77,1.52-2.81l2,.36c-.26,2-1.06,5-1.37,8,.17,0,5.56.83,4.13-.27.61-1.11,2.88-4.75,4-5.44a18.31,18.31,0,0,0,.51-3c-.12-1.7-2.34-4.14-3.1-5.73,1-1.16,2.72-2.39,3.64-3.44s3.52-3.67,3.86-4.45c1.89-4.54-.44-9-.13-11.34.52-4,3.48-5.6,3.88-10.61l-1.49-3.36c-.39-11.45,1.11-9.41-8.92-14-.82,1.91-2.49,5.43-3.36,7.62-2,.14-1.09-1.1-2.17.63-3.46-.8-7.78-2.29-9.8-2.82,1.75-7.56,1.7-10.4.9-17.33-2.76-1.18-7.26-4.84-11.62-4.19-.8.08-2.34,2.11-3.51,2.44-.4,2.31-.44,4.72-1.2,7l-2-.36c-.65-2.28.54-3.18-.15-5.17-1-2.73-5.61-5.8-5.6-9.27,0-5.82,3.72-5.3,3.89-10.6,0-1.45-6.59-14.33-7.79-14.81-5.32-2.19-6.76,1.4-9.65,2.35-3.53,1.09-7.45,1.31-10.7,2.16.52,6.85,2.28,19.75-9.7,14.69-4.24-1.8-2.48-4.6-3.64-8.9-.17-.7-2.61-1.86-2.62-2.53-.14-4.76,3.87-8.14,2.23-13-1-2.82-4.75-2.7-7.5-4.46Zm-320.28,72.4c-.72.84-2.36-.14-3.18.46-1.69,1.14-.89,5.07-2.22,6.82-1.25,1.59-7,3.19-10.57,1.18,0,0-1-5.7-4-6.92-2.81-1.16-6.85-.29-8.21-.47l-2.4,7.83-6.06,5.09,2.84,1.55c1.43,3.33,1.47,4.57,2.62,8.75-1-.7-3-.16-4-.73-3.25-1.82-5.22-12.64-8.79-15-4.52-3.08-13-4.37-18.56-6.48-1.28,1.22-2.93,1.56-4.55,2.27,0,0-.49,2.85-.52,3,1.2.54,1.17,2.79-.35,2a10.4,10.4,0,0,1-.65-2.19c-2.79-.5-6.3-1-9.05-1.64-2.33,6.36-5.68,8.84-9.47,12.74-1.06-1.16-2.82-.61-3.85-1.73a25,25,0,0,1-1.31-4.37c7.08-.66-11.41-1.69-4.2.27-1.72.17-2.8-.48-4.19.26l-7.26,5.92c-2.05,2.5-2.17,8-5.77,9.3-1.65.56-6-.29-7.22-.29-7.17,12-5,3.58-13.46,5.82-1.39.33-2.6,3.74-3.9,4.47s-3-.12-4.19.27l-1.36,1.82c-4.89,2-8.87.29-13.43-.37-.84,1.3-1.72,4.14-3.06,5.65-2.2,2.38-5.73,1.25-8.75,2.55-3.85,1.59-14.33,13.12-16.89,13.49-.34,0-4.06-1.91-5.87-2.11-3.75-.45-10.42.38-13.62.64a88.89,88.89,0,0,0-1.27,13.23c-2.22-1,.15,1.19-2.19.64l-1.67-2.38c-3.23-1.53-7.68,1-8.75,2.55-2.28,3.18-1.41,6.55-1.76,10,1.73.31,4.47.26,6.05,1.1-2.92,11.31-1.73,11.69-12,9.21A19.68,19.68,0,0,1,339,1520c.47,4.16-.12,5.93.26,10.41-.43-.15-4.48,0-6.22-.1,0,0,1.35-5.12-10.43.19-.46,11.35-6.29,14.23-6.76,26.75-3.26,1.16-7.11,3.11-10.13,4.38,0,1.82-.94,3.17-.88,5,.07,2.6,2.64,6.5,2.46,9.77a19.55,19.55,0,0,1-2.6,8.86c0,.06-2.19.64-2.19.64-2.22,6-1,13.88-1.33,19.46,1.16.63,2.6.41,2.85,1.56s-1.08,2.84-.7,4c-.88.72-3.79,1.39-4.56,2.29-4.21,4.68-1.91,10-3.82,15.91,0,0-2,.55-2.2.64l-.35,2c-.57,1.52-2.13,4.7-1.41,8,.14.67,2.2,1.89,2.67,2.56l-.35,2c10.31,2.61,10.38,2.72,17.19-3.12.72.39,2.72,1.59,2.86,1.55-.69,1.34-2.48,3-2.73,3.66-.57,1.42,0,6.21,0,6.21.39.4,2.58,2,2.67,2.56.35,2.47-1.19,5.52-1.4,8.06-8.5-5.94-14.67-6.14-12.51,6,.26,1.51-.49,2.29.49,3.21,1.62,1.5,4.64.76,6.88,2.28.58.4,1.68,4.3,2.32,4.58,6.29,2.34,10-3.72,12.68-7.07,1,.77,2.43,2.47,3.69,2.74-4.72,6.35-3.15,5.55-2.11,12.06-.25.08-.49,2.79-.53,3-.29-1.55-1.56,2.42-1.54,2.84.25,6.21,8.63,7.13,14.25,7.77-.4.43-.24,2.45-.52,3-1.55,2.51-8.67,4.23-11.32,5.25.3,1.8-1.21,3.2-.88,5,.17,1.07,4.89,6.8,6,7.29,4,1.76,11.86.46,14.65-.49,1-.35,3.28-3.32,4.74-3.27,3.3,0,4.12,2,6.7,3.29-.06,0-.5,2.86-.52,3-12.82-.85-16.66,1.66-11.53,12.45,5.63-.41,6.79.55,12.44.19-.16,3.35-.38,10,2.12,11.79,1.68,1.13,5,.61,7.05,1.27,10.46,3.38,9.91,8,18.85-.78,5.07,1.5,8.1,3,12.1,2.18l2.36-1.66c3.45.17,6.52,3,8.72,3.65,2.83.72,4.06-.31,6.23.08,1.07-2.43,2-4.56,3.41-7.66a45.12,45.12,0,0,0-4.51-3.94l.35-2c3.61-1,7.82-2.76,11-3.23,3.65-.51,9.12,0,12.08,2.17l1.66,2.38c5.06,1.7,8.21-1.06,11.61-1,2.33,0,5.8,2,8.06,1.45,3.32-.77,4.21-7.06,6.78-9.13,2.69-2.22,8-2.56,11.11-4.24-.52-2.59,3,.55,3,.55-.17,9.4-1.45,7.59,7.49,10.7,2-2.59,5.55-8.23,9.63-7.62,1.76.27.32,1.51,2.84,1.55.26,1.5-1.16,3.49-.87,5,.1.56,2.17,2.43,2.49,3.56,1.18-.24,2.81.8,4,.73,3.3-.32,6.26-7.31,8-10,11.34,1.54,8.83,2.17,14.3-4.7,4.39,1.42,6.77,1.51,11.06,2,.41-1.05,2.14-1.28,2.37-1.65,1.13-2,.09-5,1.22-7,.9-1.71,5.44-2.64,6.9-4,1.59-1.5,2.29-4.41,4.07-5.5,3.41-2.13,8-1.42,10.26-5.38,1.14-2.08.38-4.79,1.22-7,.4-1.16,3.73-4.32,4.06-5.49,2.08-7.51-2.24-9-6.13-12.49-1.63,1.52-3.24,2.81-4.89,4.29,2.43.93-3.36,1.47-3.36,1.47,1.88-5.26.12-5.42,6.59-8.13,2.59-1.12,4.07-.69,6.55-1.93.75-.41,1.68-2.44,2.53-2.65,3.71-1,7.63,1.25,11.41,0,1.75-.62,1.45-3.91,2.87-4.66-1.07-3.17.2-3.39-2.14-5.57-1.34-1.24-2.9-1.75-4.68-2.91,1.2-.52,2.41-3.22,3.71-3.47,3.09-.64,5.76,1.34,8.21.45,2.18-.83,1.2-3,2.88-4.66,1.06-1.1,4.56-1.08,5.55-2.1,1.16-1.28,6.7-11.43,6.62-14.32-.07-1.66-3-3.51-3.32-4.74-.69-2.54.46-4,.2-7.2,1.33.17,1.81-1.61,2.36-1.64,2.24-.18,2.59,2.25,3.66,2.73,5.86,2.48,7.76-.87,10.74-2.2.25-4.38.51-9.79,1.26-13.21-4.35-3.28-6.59-2.13-5.64-9.29.88-7,4.54-5.84,5.58-8.3.83-2,0-5.79,0-6.2.78-9,4.14-9.29,3.13-18,1.43-.25,3.6.65,5,.91,4.12-5.88,3.3-3.32,2.92-10.85-1.28-.65-3.12-.82-3.84-1.72-1.87-2.47-3.24-6.51-4.63-9.12,4.92-2.65,8.58-5.51,13.76-7.83-.22-1.85,1.08-3.2.87-5-.08-.63-2.28-3.48-2.32-4.55-.18-4.52.81-7.22.91-11.2,1.13.24,5.33,1.74,7.86,2.45,0,0,2-4.41,2-5.82,0-.52-2.58-13.68-2.77-13.94-.84-1.12-3.74-2.06-4.66-2.91,2.27-4.36,7.13-12.06,1.6-15.19-1.62-.95-3.43,0-5-.91a41.6,41.6,0,0,1-2.88,4.62c-6.52,7.82-1,.42-5.35,1.1.31-1.81,1.18-4.2,1-6a13.32,13.32,0,0,0,2.17-.63c.7-1.39,1.22-1.08,2.35-1.64a47,47,0,0,1-1-6.37c-1.93.52-8.69,2-10.55,1.18-.22-.11-2-3.34-2.49-3.56-1.11-.52-3-.12-4-.73-.92.61-4,4.13-4.89,4.29-1.15.14-2.91-1.12-4-.74,3.51.64.27-13.31.25-13.38,5.47-1,5.79-1.53,9.9-3.36-.17-1.84.73-4.23,1-6-4.25-1.64-5-2.4-10.86-3-.84-2.86-.58-2.5-2.32-4.56-3.4,1.32-4,2.5-8.9,3.55-2.93,10-2.27,9.94,6.3,11.47-2.8,3.78-2.69,5.42-4.92,10.47-1.94-3.77-4.93-8.19-8.48-10.83l-1-.19c-1.12-3.79,1-8.44,1.09-12.2,2.2,0,1.88.34,3.18-.45,1.71-1.11,5.31-1.53,6.72-2.91.59-.61,1.54-4,.52-3-.29-.21-.8-4-1.32-4.36-4.34-3.34-12.17-1.22-16-2.93-2.73-1.24-3.1-7.89-5.64-9.29l-2-.37Zm616.47,125.75-2.17.63c-1.41,1.51-.93,2.6-1.84,4.81-4.35-2-6.29-2-10.6-4-8.29,12-5.51,8.67-20.63,6.53l-5.33,1.09c-.78,0-1.61-1.19-.83-1.18-1.29-.88-3.69-.07-5-.9s-.35-7.17-6.14-6.27c-.13,0-3,3.37-.51,3,0,0,0,5,0,6.17-5.11,2.42-4.19,1.39-8.14,5.72-2.81-1.41-3.92-1.42-5.65-3.09-3.33-3.21-1-5-.32-4.17.73-2.16,3.27-1.59,3-5.63-.08-1-3.1-2.82-3.48-3.72-.63-1.4-.11-2.5-.32-4.17-.33,0-3.39-1.39-4.79-1.91-1.24,4.89-2.55,9.93-2.72,16-2.48-.2-8.65-1.68-12.15-1.19-1.52.18-5.34,4-7,4.91-1.14-.79-3.72-.68-5-.91a52.89,52.89,0,0,1,0-6.17c-2.67-1.23-6.25-4.65-11.61-4.17-.67,0-3.17,2.38-3.51,2.44l-2-.36c-8.4,5.74,2.49,9.36,6.13,12.44,1.11.94,2.17,3.7,3.32,4.71a29.56,29.56,0,0,0-4.51,2.28c-3.83-3.88-8.09-8.42-16.28-7.08-1.77.25-3.92,2.92-5.68,3.09-2,.16-4-1.13-6-1.09-.36-4.15-1.22-12.42-6-13.44-1.54-.35-3.18,1-5.34,1.09-.42,1-2.1,1.23-2.34,1.64-1.37,2.48-2,6.87-2.49,8.8-7.64.55-13,1.77-21.82,1.19-2.16,3.66-3.57,6.15-5.71,9.27l-2-.37.34-2c-.86-5.11-6.06-3.9-9.63-3.81-2.58,7.39-4.81,8.6-8.53,13.91-8-4.39-6.19-3.89-13-2.37-.31,1.82-.28,4.27-1,6l2.84,1.55s-.49,2.84-.52,3c-4.91-1.67-7.82-1.58-12-2.17-.75,2.18-3.1,1.46-3,5.63,0,.22,2.49,4.48,2.32,4.54-3,.68-5.61,7.23-6.89,10.09-8.61.59-12.46-.36-19,2.74,0,2.31-1.59,4.71-1.2,7,.36,2,5.12,4.38,6.16,6.27,1.23,2.26.78,7,2.64,8.73,2,1.86,4.5.49,6,1.08.24.08.77,2,1.66,2.37-.05.06-2.78,5.63-2,5.82-6.52-1.94-8.5-2.22-15.16-1.72,1.25-4.6,3.56-11.14-.78-13.54-1-.61-3-.07-4-.72-.46,1-2.15,1.22-2.34,1.63-2.4,4.34,1,6.89-.88,11.19-1.1,2.29-16.61,11-19.92,13.94,1,1.33.16,2,.32,4.19,2.3,1.06,6,3.66,8.47,4.62-12,.76-18.36,3.84-15.08,15.85-3.92,1.84-14.09,9.58-14.08,16,0,1.41,3.13,3.67,3.28,4.72s-1,2.86-.68,4c-2.38.86-15.14,7.21-15.9,8.49-1,1.66-.26,4.18-1,6a22.51,22.51,0,0,1,3.84,1.73c.69.57,0,2.7.49,3.18-2.06,2.4-7.33,5.13-8.57,7.75-1.84,4-.12,12.06-4.24,12.67-2.37.32,2,6.56,2,6.56l-.17,1c.66.47,2,3.94,2.32,4.55a15.85,15.85,0,0,0,2.5,3.55c-2.66,2.72-8.69,7-7.6,14.14.12.76,2.16,2.38,2.5,3.56a50.62,50.62,0,0,1,7.2.26l-1.72,10c.57-2.14-1.76,10.5-1.06,12.2.43,1.16,4.62,2,5.64,3.09.59.65.5,3.62,1.32,4.39,2,1.82,6.47,3.52,8.48,4.63-.45,2.62-2.18,7.4-1.72,10,.58,3.13,5.4,3.75,8.35,5.65,1.25-1.31,3.28-2,4.7-3.31,1.09-1,1.77-2.58,2.69-3.66.39,2.56,1.31,10,3.09,12,3,3.32,6.91,2.9,11.83,3.16-.56.61-.23,2.29-.51,3-.47,1-4.85,3.44-5.84,4.13.66,1.45.81,4,1.15,5.39,3.25.59,6.18.66,10,1.8,1.54.44,3.53,3.58,7.65,3.45.92-.09,3.76-3.18,4.7-3.3,1.19-.2,2.85,1,4,.72,4.35,9.15.54,8.93,12.12,13.54,4.15-4.19,8.94-13.86,18.23-10.16.55.18,2.28,4.31,3.32,4.74,3.56,1.43,6.15-1.13,10.16.79.92.42,1.5,3.84,2.32,4.57,1.4,1.24,3.22.53,4.81,1.85.91.75.58,3.63,1.32,4.39,1.51,1.55,13.07,8.64,17.14,8.26,1.82-.22,3.58-4,5.87-4.13,5.56-.37,7.43,3.7,12.82,3.34,3.67-.25,7.1-6.8,8.88-9.76,13.35,4.31,9.09,2,17.81-2,1.79-.84,3.67-.25,5.35-1.11,1-.53,2.59-3.35,3.68-3.44,4.28-.64,8.64,2.59,13,2.33,1.85-.16,4.1-2.49,5.69-3.11,0-1.75-.31-4.7-.14-5.21-2.22-1.51-4.42-3.86-6.33-5.28,3.32.89,7.74,2.76,9.8,2.8,3.66.08,13.67-5.16,14.88-8.66,1-3.17-3.37-8.06,1.53-9,2.61-.52,6.26,1.54,9,1.61,2.43,0,7.39-2,9.64-2.4-.21-1.4.62-3.61.86-5-6.22-4.43-7.5-4.91-15.14-1.69l-1.34,1.83c-3.63,0-2.49-2.35-4.62-2.9.49-1.49,1.83-4.48,1.84-4.8,7.76,2.14,11.6,2.83,16.65-1.14,9-7.16,5.14-10.37-3.62-15.1.71-1-.17-1.93.51-3s4.09-2.25,4.68-3.28,0-3,.68-4l2,.36a31.31,31.31,0,0,1-.68,4c1.17.9,2.21,1.08,2.62,2.54,5.67-.82,15.27-2.76,16.83-8.31,2.34-8.41-8.06-10.07-13.6-10.71,3.33-5.29,4.58-8.26,4.72-15.64,2.55-.45,3.56.15,6.17.08.38-1.06,2.11-1.26,2.34-1.64,2.7-5,.62-5.11,4.52-8.46,1.51-1.34,3.85-2,5.64-3.11-.39.83-2.51,3.13-2.68,3.64-1,3.23,1.18,4.49-.18,7.18-.49.94-4.71,2.5-5.64,3.11.22,1.36-.61,3.56-.85,5,4.72,1.82,3.63,5.3,10.13.8,2.06-1.5,1.56-3.13,3-5.64.82.76,3,.09,4,.72.71.45,1,4.49,1.15,5.36,4.24-1.2,9.48-.73,12-4,.6-.83,5.45-13.67,5.54-14.46.12-1.69-2.17-3.68-.81-7.37,0,0,5.86-7.08,6.52-8.09-3.31-1.57-3.9-3-7.48-4.45.58-.25-.1-2.78.51-3,1.59-.61,3.59,0,5.16-.09.11-1.14.35-6.15,1.36-8,.38-.8,3.64-1.82,4.46-2.28-1.47-5.39-1.59-8.37-2.75-13.89,2.29-.65,4.11,0,6.29-.93.9-.41,2.7-3.27,3.68-3.44,3.37-.71,6.16,1,9.11.62,2-.32,3.63-2.47,6.5-1.92,6.14,1.18,6.35,7.71,7.13,12.62,1-.37,3.65-1.43,4.29-1.27.51-5.45,1.55-7.49,3-11.82.4-1.15-.49-2.73-.66-2.18l.5-3c3.9-2.1,7.41-4.13,11.34-6.19-.07-2,1.17-4,1-6l-1.66-2.36s-.61-2-.66-2.18c-3.31-.11-7.24.72-10.15-.81-.45-.24-1.71-3-2.44-3.53,3-3.38,3.82-4.62,7.3-6.92-.43-5.47-1.4-20.9.27-25.67,1.26-3.8,7.91-5.64,9.64-8.54,4.2-7.37,1.92-26.44-2.26-29.22-4.36-2.91-10.41-.67-14.71-3.7-1.4-1-.43-3.81-1.15-5.35-1.6-3.22-5.91-3.05-8.31-5.63-2.74-3-4.06-15.84-7.23-17.77-1-.6-2.22.23-3-.55-3.49,9.62-3.1,9.28-13,10-.5-1.44-.36-3.71-1.15-5.36-.61-1.24-4.34-2.82-4.48-3.9-.53-4,3.12-5.31,2.69-9.79-.19-1.58-3.36-3.74-4.32-4.91,0,0,1.24-1.7,1.34-1.82,2.41.64,5.8.26,8,1.46,1.88,1,2.52,6,5,7.08,12.07,5.51,11-4.29,6.64-9.08-2.91-3.23-5.64-4.82-8.92-7.79Zm-414.64,198c-.77-.06-1.58.29-2.23-.28-.62.72-3.36,1-4.33,1.29,0,.53-2.24,13-2.24,13-.64.63-2.74.75-3.36,1.47-.55.56-1.26,4.46-1.86,4.81-1.75,1-2.59.07-5.2.1,1.13.87-2.58.78-3.19.46-.42-.24-.68-1.86-1.67-2.37,1.63-5.15,3.93-10.79-.73-13.58-1.87-1.17-2.57,1-5.2.1-.82-.31-2.68-3.43-3.5-3.74-7.63-3.16-12,1.54-16.08,3.32-.89-.86-2,.06-3-.54-1.43-.88-1.82-4.85-3.12-5.75-3.25-2.33-12.26-3.21-16.23-1.89-5.23,1.72-4.55,12.92-8.14,17.17-.57.65-8,4.71-9.22,5.56-1-1.29-4-6.56-5-7.08-10-4.91-19.49,11.89-21.4-8-.55-.18-3.59-2.22-5.85-2.09l-1.34,1.84c-3.7,1.53-7.22,5.38-2.58,8.83.78.56-1.6.88-1.34,1.84-2.3.17-5.25,1.54-7.38.74-2.48-1-1.41-5.36-7.34-5.47-1.46,0-9.6,5.37-10.26,5.42-2.32.08-6.8-1.89-9.87-2.81l-1.53,2.84c-8.3.62,1.36-4,2.88-4.68,0-1.58-.26-4.86-.14-5.21-3.94-1.34-5.16-1.35-8.86-2.6-.51,1.24-1.43,1.12-2.36,1.61.32,4.3,0,6,.45,9.43-2.75.71-6-.46-7.57,1.76-1.31,1.79-2.16,7.42-2.57,8.84-1.93-1-2.28,1.25-4.19.28-1.25-.64-1.3-4.84-3.15-5.76-5-2.51-9.94-2.08-14.9-3.72-2.57,10-8.38,15.66-14.06,21.33-.41-.45-2.55-.46-3-.54-1.33-4.86-1.2-3.92-1.27-10.62-1.62-.75-1.71.48-1.85-1.33-1.13.33-2.88-.94-4-.72-.49,0-1.26,1.43-2.36,1.61,0,0-.72,4.73.49,3.2-.42.92-1.71,3.85-1.71,3.85-2.39,0-4.74-1.64-7-1.26-1.54.22-3.38,3.92-4.91,4.31-7.91,1.87-13.59-3.52-18.6-6.46-2.64,2.52-4.24,2.81-6.42,7.12.17-.76,1.55-6.66,1.4-8-.09-.64-1.72-1.1-1.66-2.38-1.54.26-3.54-1.18-5-.91-.83.1-3,1.75-4.55,2.31-.86-.82-1.4-3.87-2.32-4.58-1.31-1-11.43-4.84-13.75-4.55-.19,0-1.13,1.67-1.35,1.84-6.78,4.1-3.52,3.44-3.76,9.68l.31,4.21s4.74.73,3.19-.47c1.17.21,2.82.59,4,.73a36.83,36.83,0,0,0-.7,4c-2.3-.91-1.92,1.15-4.2.29-.8-.31-2.55-4.45-3.33-4.76-3-1.21-14.39.24-16.82,1.14-1.1.38-.68,2.25-1.53,2.84-1.42.91-3.64.39-5.39,1.11-.72.25-1.85,2.5-2.53,2.63s-2.43-.73-3-.54c-.4-2-1.52-.24-1.84-1.38-.27-.88.54-3.14.69-4-1.68-.76-.49-.5-.65-2.2-1.76-.31-4.49-.3-6-1.08-2.78,2.7-6,6.45-9.64,7.59-5.32,1.62-16.91.12-20.38,3.62-1.32,1.26-.4,2.51-1.71,3.86-1.65-1-1,1-1.36,1.79-2.45-1.23-.52,3-.52,3,2.5,1.28,3.46-.46,6.22.08,0,.12-.55,3-.53,3-2.61.28-2.32-.08-5.21.11,1.33,1.32-3,.42-3.2.47l-.13-5.23c-.63-.53-4.85-.29-5-.91-.56-1.8,1.07-6.13,1.4-8-10.39-4.36-7-3-13.33,4.85-.24.29-3.53,2.41-3.55,2.49-1.44,3.44.31,7-.57,9.26-.44,1-3,1.5-3.55,2.45-1.13-.75-3.69-.66-5.05-.91a47.33,47.33,0,0,1,2.24-6.84c-.76-.85-1.69-.93-1.66-2.38-1.94-.27-7.23-.26-7.23-.26s-3,.29-3.21.47c-1.65,1.08-1.61,5.5-3.24,6.66-2.37,1.62-6.21.14-8.61,1.58-.79.44-.45,2.59-1.53,2.85-1.51.27-3.56-1.22-5.05-.9,1.13-.34-1.65-2.38-1.65-2.38.23-.29,2.53-2.67,2.53-2.67,3.78-.45,7.22.75,9.61-1.36l2.54-2.67c.62-1.47.05-6.24.05-6.24-9.55-1.71-15.27-1.57-21.59,4.46-1,.94-1.46,3.32-2.71,3.64-3.33.82-6.55-1.64-9.26-.62-1.42.49-7.33,11.81-6.86,15.39.1.73,2.19,2.39,2.5,3.57,1.83.33,4.31.32,6.06,1.09-.17.18-1.57,1.72-1.37,1.84-8,0-8.51,1.6-12.68,7.06-10.07-1.8-11.78-1.28-15.55,5.55l-.35,2c-2.34,1.25-6-.58-8.43.53-5.56,2.55-4.07,17.37-5.59,26.06,4.18,2,10.07,5.14,10.89,9.2.22,1.17-1,1.91-.53,3-2.66,1.23-18.08,10.65-18.82,12.23-1.5,3-.2,5.47-.4,8.27,1.34.16,3.09,2.1,5.89,2.1,2.23-.06,3.2-2.68,4.74-3.33,0,0,4.22,2.38,2.69,2.57.55.56,2.45,1.77,2.68,2.56.74,2.47-.48,4-.23,7.22-1.43,0-1.82,1.68-2.55,2.67-1-.72-1.82-3.2-2.5-3.57-2-1.11-4.92-.55-7.07-1.27-1.65,3.09-6.17,8.5-6.33,12.39-.05.66,2.38,3.1,2.49,3.58.92,3.67-.89,3.43-1.23,7-1.18-.88-1.09,1.43-3.2.47-.25-.09-.83-2-1.68-2.35,4.27-.82-5.39-2.54-2.86-1.55l-1.71,3.83c3.62,3.19,10.66,6.28,12.74,10.62,1.13,2.41.09,5.6,1.8,7.58,2.7,3.19,6.88,2.35,7,7.51.12,6-4.18,6.94-4.13,11.74,0,2.63,4.35,4.91,5,7.16a51.83,51.83,0,0,1,.61,8.41c-.38,4.61-3.94,15.66-2.69,21.4l1,.18c2.77,2,4,8,6.68,9.49l2,.36c.43.54-.14,2.73.49,3.22,2,1.53,4.78.56,6.89,2.27,1.68,1.39,7.86,14.34,3.25,17.24,4.34,4.82,14.05,9.22,11.32,18.67,0,0-3.38,3.7-3.9,4.53,1.37-.47.51,1.68,2.84,1.55,1.16-.09,1.91-2.71,2.74-3.69.79.14,3.27,1,4,.72,1.77,2.4,8.91,10,1.28,10.62-.57-1-1.38-4-2.34-4.55s-3.07-.08-4-.72a15,15,0,0,1-3.56,2.46s-.64,3.69.65,2.21c.29,2.43.16,1.74.32,4.23,2.19-.61-.23,7.23-.23,7.23,6.45-.9,8.72-1,15.51.7.22-.33,1.17-1.88,1.36-1.84,1-.12,4.83,1.61,3.87,1.73a67.57,67.57,0,0,0,3.82,7.94c-4.88.56-10.31-.24-12.18,4.11-.24.46-.19,2.6-.53,3-.81.9-4,1.21-4.57,2.28-.78,1.32-.12,3.7-.88,5.06,2-.56,3.4.52,5.24-.11,2.05-.77,4.13-4.11,6.11-5.18,3.89-2.15,7.5-3.06,11.33-5.26,1.75,3.82,3.69,9.09,6.15,12.53,1,1.48,5,3.43,5.36,5.13.66,3.12-1.88,3.51-2.06,5.86l1.49,3.4c.19,7.67-.55,5.62,1.09,11.68,1.19-.25,2.82.79,4,.71,2.91-.28,6.76-4.23,9.32-5.66,6.41,8.24,11.86,14.89,25.2,10.73-1.7,5.88-3.39,11.68,1.58,14.86,1.5.93,3.14.26,3.86,1.73.54,1.05,1.18,8.39,1.45,9.61,11.76.33,14.55,2.24,21.52,8,1.72-.7,6.64-4.51,8.95-3.64,0,0-1.64,4.76-2.06,5.9.64.61,5.06,4.32,5.36,5.08.54,1.73-1.16,4.22-1.06,6.08s4,5.8,4,7c0,2.39-2.13,3.47-3.07,5.68,2.88-.11,7.44-1.27,10.44-.2,2.76.95,4.16,5.63,6,7.29,1.43,1.3,3.25.54,4.87,1.91,2.47,2.06,5.71,13.58,6.28,17.77,4-.58,11.34-1.13,15.66-.36,1.27.18,3.09,2.63,5.88,2.08l.18-1c1.78-.56,2.35-2.89,3.73-3.52,1.83-.85,3.11.55,5.21-.08,1.29,10.54-2,6.19,7.5,10.68.29-.33,2.12-2.63,2.55-2.68,1.22-.25,1.83.9,3,.53.73.84,1.44,3.89,2.32,4.59,2.55,2,10.66,3.55,13.77,4.52,0,2.33-1.63,4.72-1.22,7.05.8,4.57,18.92,11.36,24.64,13.74.14,1.82-1,3.16-.87,5,0,.17,7.25,10.51,7.5,10.72,8.16,5.57,9.62-1.23,13.81-1.74,8.49-1.09,10.62,4.25,13.4,6.54,1.49,1.18,3.16.68,4.87,1.9.82-1.4,1.91-1.08,3.38-1.49.19-5.81,1-8.84,1.08-12.29,1.53.68,2.52-.15,4.2-.31.62,1.7,2.09,8,3.65,8.95,5.32,3.16,13.5.42,17.48,1,6.79.91,7.25,3.58,10.19,7,10.17-2.51,10.31,1.56,21.52,1.7,1,0,6-2,6.54-2,3.61.05,6.66,2.59,8.91,2.61,1,0,3.38-2,4.52-2.33-.14-1.86,1-3.2.86-5,0-.42-7.52-16.47,4.94-10.6.43.2,1.77,3.27,2.51,3.57,2,.73,3.31-.63,4.21-.3-1-1,1.55-4.19,1.87-4.84-1-.81-.14-1.86-.66-2.21-1.62-1.2-3.24-1.19-4.87-1.9.48-2-.57-3.23-.31-4.23.9-3.55,7.31-4.33,9.46-6.63,1.59-1.8,1.53-4.81,3.23-6.72,1.94-2.33,14.69-5.41,19.29-3.85.47.13,2.32,3.41,2.51,3.53,1,.55,3.16,0,4,.71,1.23,1,1.78,4.9,3.16,5.77.68.42,2.31-.13,3,.54,2.81-11.26,1.91-8.71,10.59-7.47-.58,2.65-.5,6.54-1.56,9.07-.09.06-3.18,1.35-3.37,1.48.65,7.12-1.23,4.75,2.48,9.78-1.15.13-1.9,1.59-2.37,1.67-1.66.25-3.35-1-5-.89,1.51.89-4,.29-4.17.3a14.61,14.61,0,0,0-.48-3.21c-3.72-8.33-2.54-7.7-14.89-9.88-1,1.82-1.63,5.13-3.23,6.68-1.38,1.26-4.94,1-6.57,2s-1.1.81-2.54,2.68c0,0-.49,2.87-.52,3,.68.13,3.5.16,4,.72-.09.31.13,3.61.15,5.2-5-.88-1,8-.56,9.28-3.75,2-7,4.2-10.43,6.47.22,1.87.88,2.4.32,4.22,9.39,8,11.64,7.27,19-1.87.54.93,3.16,1.69,3.68,2.74.68,1.37-.27,2.79.32,4.22,2.9,7.32,8.37,5,13.9,3.5.47-7.8,1.39-9,3.44-14,.87.74,3,0,4,.71,1.39.87,1.93,6,4,6.91,7.26,3.25,9.33-2.31,13.13-3.89,1.94-.87,3.21.44,5.18-.13s4.13-3.27,5.91-4.17c.74.51,2.21.18,3,.53,1.51.64,2.22,4,3.3,4.75,3.15,2.19,5.28,1.15,9.07,1.61a21.83,21.83,0,0,1,2.53-2.68c2.31-5.23-1.71-8.69,2.91-10.91.93.66,2.93.1,4,.7,1.48.8,1.14,4.5,2.16,5.55,4.73,4.92,9.8,1.73,14.41.5.39-3,1.05-6.15,1.56-9.1-2.14-1.34-7.79-4.21-8.17-6.61-.2-1.25,1-2.91.69-4,2.5,1.19,2.51-1.26,5,.89,3,2.53.21,6.79,7,7.45,4,.41,8.45-3.34,10.4-6.46,0,0,2.72-.89,1.35-1.84s-2.9-4.6-1.77-7.57c.12-.47,3-1.22,3.32-1.49,2.92-2.74,2.82-5.29,4.75-9.58-.76-.84-1.66-.92-1.66-2.37a15.5,15.5,0,0,1-3-.54l.51-3c12.68,8.82,15.14,3.43,28.66,1.95.6-1.77,1.07-5.73,2.39-7.91.61-1.1,4-1.91,4.67-3.3.91-1.92.28-4.07,1-6.06-.76-.88-1.58-.94-1.67-2.38-1.33-.23-3.91-.15-5-.88-.63-.44-1-4.08-1.32-4.4.93.17,2.6-1.12,3.36-1.48,4.92,4.74,2.83,3.87,10.51,5,.18-2.47,1.49-1.4,1.69-3.82.06-1.07-2.31-4.16-2.32-4.58-.08-3.67,2.37-4.2,3.05-5.7.77-1.86.18-4.26,1-6,.94-2.08,4.47-3.54,6.07-5.17-.32-.81.51-2.28.52-3-.17-2.4-4.49-4.79-6.19-6.26,3.9-8,7.42-10.17,10.66-19.91-.81-.35-2.36-2.42-2.67-2.56-5.8-2.4-9.78,3.18-13.24,4.94a15,15,0,0,0-2.52,2.63c-.1-2.1,0-7-.29-10.42-.1-.85-2.35-3.7-2.33-4.57.06-6.15,6.07-5.91,7.93-10l.17-1c-.33.73-.74-3.17-.31-4.22.6-1.56,10.85-14,7.11-17.37-5.34-4.86-10,.43-13.58.66-.62,0-2.45-.68-3-.53-.09-1.14-1.62-1.91-1.67-2.33-.58-3.39,1.49-8.72,2.07-12.11.21,2,1.18-.83,1.18-.83-2.17-8.16-1.77-6.14-10.2-7-1.48,3.31-5.79,15.86-9.1,17.06-2.64.86-5.71-1.06-8.22-.43-.48.09-3.33,2.45-3.54,2.46-2.25.09-2.72-1.78-3.81-1.72,1.17.21-.49-3.17-.49-3.17.35-3.72,5.4-9.27,6.1-11.4,1.17-3.91-.26-7.66-.29-10.41l1.52-2.84c1.79.73,4.21.12,6,1.06,4.44,2.41,1.29,11.13,9.81,9s5.26-11.59,3.94-16.94c-5.34-.53-7.58-1-12.2-1.13,3.14-6.47,2.38-5.9,2.07-12.11a34,34,0,0,1-4.65-2.86s-7.79,5.31-6.23,6.13c4.08,2.09-.23,13.18-2.76,16.1-1.9,2.12-7,2.78-9.92,3.43,3-12.74,1.37-10.19,11.16-16.69-.58-3.93-.13-4.8-.63-8.43.59-.31,3-.92,3.35-1.44,1.23-1.82-.33-3.13,1.7-3.85,0,0-.95-5.58-1-6.41.89.82,2.91.89,3.85,1.72.53.51.88,3.07,1.49,3.39,1,.55,5,.09,4.16-.3.3-.57,3.06-1,3.36-1.48,1.56-2.84.33-8.22,1.89-11.06,1.15-2.08,6.42-.18,6.4-7.13,0-2.37-3.67-5.39-5-7.12,4.13-6,3.68-3.38,2.72-9.87-.7-4.82-1.16-9.89-5.09-12.34-10.24-6.27-12.76-.32-13,9.12-.81.39-5.17,1.4-5.54,2.09l-.34,2-2-.35c-.3-2.84.58-4.63-1-6.37l-.84-1.18c.57-.4.13-2.43.52-3l1,.18c4.19-1.25,6.42-4.8,9.55-7.61-9.54-3.57-8.78-8-10.1-19.42,2.57-.75,8.33-3.62,10.92-3.24,5.35.7,3.59,3.5,5.3,5.1,1.62,1.45,3.09.34,4.86,1.9,1.39-.66,3-1.91,4.53-2.3-.26-3.08,1.14-4.91.21-7.24-.13-.23-3.68-2.73-3.68-2.73-.32-3.92,3.41-3.17,3.39-7.66,0-2.33-3.35-4.17-4.16-5.94-.67-1.45.23-2.82-.32-4.21-1.24-3.13-5.36-5.44-8-7.62.78-1.85.15-4.25,1-6,.51-1,4.43-2.86,4.84-4.29,1.52-5.5-3.8-9.52-7.28-11.68-1.91-1.17,3.15-1.72,4.36-1.3l1.67,2.38c8.48,4,8.31-5,8.89-9.79-1.25-.47-1.14-2.07-1.67-2.37-4.57-2.57-11.88,1.86-14.89,2.52l-1.49-3.38c.3-.57,3.06-1,3.36-1.48.85-1.59.72-4.23,1-6,1.41.92.84-1.55,3.18-.46.39.15,1,2.92,1.5,3.34,4.56,4.09,7.08,2,11.36,0-2.35-11-1.75-15-14.66-10.93a20.14,20.14,0,0,0,.52-3c4.27-1,6.19-.38,8.89-3.55.33-.44,1.58-.5,2.18-.65-.29-1.17.87-2.87.69-4-.34-2.1-3.87-4.68-4-6.94-.3-6,2.61-10,2.75-16.07.87.74,2.26-1.34,4,.71,1.86,2.2-1.41,10.17-2.42,14.1,2,0,3.45,1.9,7,1.26.35-.11,1.06-1.85,1.35-1.84.24-.91,3.3-2.1,3-5.67,0-.26-1.74-2.68-1.49-3.38.45-1.42,4.88-1.66,5.39-7.29.28-3.36-3.26-3-.8-7.41.13-.27,3.08-2,3.53-2.48,0,0,.2-2.62-.83-1.18-.59-.44-.46-3.86-1.33-4.35-1.92-1.13-5.82-1-8-1.44l.34-2,1,.18c.28-.69,1.26-4.5,1.86-4.85,5-3,8.88,2.06,14.19,1.52.63-.06,2.49-2.21,3.53-2.48.16-.89.15-3.25.69-4a34.66,34.66,0,0,0-9.46-11c.22-1.24,1.46-4.88,1-6-.87-2.19-3.06-1.22-4.68-2.92-2-2.1-2-7.7-2.25-10.77-1.08-.44-1.29-2.14-1.67-2.33-11.75-6.6-9.58,8.77-8.6,14-1.87.25-1.86-.29-3.19.47-4.38,2.36-3.83,2-9.17-.66.93-1.07-1.85-1.74-.66-2.15,6.21-2.41,5-9.27,6.11-17.52l3.19-.47c6.54-8,2.35-8.16-6.66-9.49-1.05,10.22.89,7.63-7.54,8-4-8.59-5.72-10.36-15.48-12.11-.55.77-1.87,3.64-2.88,4.66.26.67,2.41,3.13,2.5,3.56-.62.26-.73,4.27-.86,5-2.91,0-4-.67-6.2-.12-.51-5.94-.11-14.78-1.75-19.93,3.34-1.85,5.52-3,8.24-5.78-.61-1.52-.06-3.74-.15-5.17-.65-.28-5-1.65-4-.72-3.33,1.06-3.25-.34-5.53,2.07a36.16,36.16,0,0,0-3,5.68c-1.11-.49-3.8-1.76-3.84-1.73-.47-.91-.78-2.71-1.5-3.38-1.21.53-1.35-2-1.66-2.37,8.2-2.84,8.17-1.47,7.92-9.94-1.25-.43-1.13-2.07-1.66-2.37-1.17-.67-4.84,0-4.19.28l-2-.36c-1.58.25-2.09,4.18-3.88,4.48-1.14.13-2.88-1.1-4-.71-.44-4.9-1.08-12.06-4.79-14.31a1.94,1.94,0,0,0-.79-.26Zm409.44,123.41c-1.06,1.14-3.88,1.75-4.68,3.3,0,.07.23,3,.32,4.2-1.12,0-1.91,1.55-2.34,1.64-2.75.42-6.15-.44-8.17-.43-2.3,9.19-5.7,13-6.52,20.47-2.73-8.19-5.63-8.09-12.62-4.33-.76-1.34-1-4.57-2.15-5.53-2.94-2.39-17.34-4-22.63-6.13-.42,1-2.15,1.23-2.34,1.65-1.9,3.42-1.71,10.08-2.38,14-.17,0-2.17.65-2.17.65-.42-1.65-1.5-2.35-2.45-3.55,4-8.14,3.68-20-7.8-14.82-1.42.61-1.56,3.82-2.85,4.66-1.12.72-4.19.83-5.3,1.08.24,2.94-1.08,4.65-.2,7.21,1.32,3.89,10.06,4.92,10.78,9.19.32,1.75-1.19,3.14-.85,5a15.46,15.46,0,0,0-3-.54c-2.64-3.41-3.45-5.42-4.44-10.07-3.28-1.09-9-1.41-12.84-3.35-.3-.17-1.86-3.35-2.45-3.54-3.66-1.28-5.49,1.46-9.18-.62-.41-.24-.65-2-1.66-2.37,5.76-2.07,5.23-1.62,5.71-9.28l-2.84-1.55c-1,1-2.44.56-3.34,1.47-.71.74-1,4.37-1.81,4.81-2.72,1.46-5.86-1.46-8.52,1.58-1.12,1.25-4.22,9-4.88,10.47-18.35-9.13-13.67,6.79-25.5,4.75,0,0-2.33-1.37-2.83-1.55l.34-2c1.44-.24,3.56.64,5,.9-.43-.41,1.13-1.58,1.34-1.83-.86-1-1.43-.8-1.66-2.37-3.92-1.45-9.67-4.35-12.64-4.34-1.94,0-5.15,3.3-6.87,3.94-4.1,1.51-8.12.62-12.67,1.87-.82.19-2.52,2.41-3.52,2.48-3.47,0-3.84-2.72-6.85-2.27a18.51,18.51,0,0,0-2.48,2.67c-4.38,3.9-3.92,6.26-2,12-2.42.14-4.72.27-8.36.57.66-1,.1-3,.68-4,.19-.34,2.95-1.3,3.35-1.48-.34-1.84,1.18-3.23.86-5-.14-.61-2.22-2.48-2.5-3.52-2.19.48-4.4-.13-6.19-.08-1.12,3.91-3.39,10.71-4.53,14.7-3.13-.56-2.77-1-6-1.08.29,1.5-1.12,3.45-.85,5s4.89,4.07,6.34,5.28c-.07.16-1.36,5.52-1.69,3.85-.82.89.08,1.92-.51,3-.34.52-2.84,1.65-3.52,2.48l-2-.36c-.94-3.44-1.22-5.94-2.65-8.72-3.47-6.81-3.27-3.12-10.13-7-.3-.17-1.23-3.2-1.49-3.37-1.62-.92-3.44,0-5-.9-.71,1-3.15,1.75-3.48,2.48-1.46,2.73-.8,5.87-2.38,7.87-2.6,3.1-7.14.88-10.72,2.19-4.28,1.55-7.83,10-9.73,14.81-7.35-5.18-2.45-4.3-11-2,0,1.79-.91,2.2-1.69,3.85,3.63,3.72,3.7,4,8.31,5.63-.39.06-.83,3.63-1.69,3.81-1.25.32-3.69-.66-5-.9-.76,1.07-3.28,2.49-3.66,3.5-1.66,3.89.36,8.53.12,11.39-.22,2-1.63,2.78-1.69,3.85l-2-.36c-2-1.1-2.83-7.15-4.83-8.09-3-1.54-3.72.46-6.15-.06-4.06,8.2-4.62,7.39.74,13.58-2.32,1.46-1.8,13.18-1.92,17.27-1.23-1.76-3-3.2-4.29-4.92,2,.36-5.36-1.83-3-.54-1.33.76-2.89-.52-4.19.29l-.34,2c-4.68,8.47,1.08,10.62,2.93,19.18-.41.21-.28,2.56-.51,3-.74,1.16-5.8,1.7-6.72,3-.64.84-.35,3-.69,4s-3.74,4.2-3.88,4.51c-.8,1.8-.25,4.15-1,6,1.54,1.9,5,5.09,6,7.31.8,1.8,0,3.83,1.15,5.35,1.17,1.67,3.54,2.05,4.47,3.92,2.27,4.6,3.06,15.5,3.59,21.38,1.43.58,3.52.71,4.85,1.9-.5.28-1.16,2.45-1.52,2.85-1.19,1.11-4.59.92-5.54,2.08-2.34,2.79-1.51,11-2.75,16.1,1.72,1.1.47.17.66,2.2,4,.83,6.12,1.79,11,2-.63,1-.21,2.91-.69,4-1.43,3-7.65,4.29-4.91,10.52.43.91,3.56,1.76,3.68,2.73.58,5.06-4.65,6.87-.71,10.23,1.08.94,5.25,2.72,6.65,3.26-1,3.52-3.48,8-2.07,12.11.26.67,2.63,1.84,2.68,2.51.23,2.5-1.92,5.65-1.38,8.07.14.61,1.4.75,1.83,1.37,2.29,2.86,5,3,7.36,5.47.84.89,0,1.86.49,3.16,2.81,7.07,8.76,4.47,14,2.49a131.81,131.81,0,0,1-4.76,15.75c.69.33,5.74,2.56,4.81,1.9,3.09-1.33,6.19-.11,7.9-3.8.42-1,0-3.2.68-4s3.69.24,4.19-.29c.22.87-.61,2.13-.52,3,.06.64,2.44,3.22,2.46,3.56.1,1.64-2.31,5.54-2,5.84a5.89,5.89,0,0,0-2.35,1.67,19.32,19.32,0,0,1-.52,3c4.57,3.06,5.79,3.94,13.68,4.51-.09.57-1.21,4.69-.85,5-1,1.06-3.2,1.51-4.54,2.31.17,1-.51,3-.68,4,1.35.82,1,1.89,1.49,3.38,5.64-.08,6,.07,9.52-1.43,1.07-.47,4.74-1.32,5.54-2.14,2.2-2.27,1.34-5.45,4.21-6.53,1.37-.5,3.47,1,5,.9l2.3-1.63c5.44-.33,3.27,1,6.86,2.25-.8,1.53-.73,4.28-1,6-3,.52-6.06,1-8.51,1.61-.13,1.68-.24,7.19-.24,7.19,1.53.52,2.91,2.14,5.86,2.08,1.41,0,4.2-2.54,5.7-3.11,6.91-2.89,10.07.17,17.72-1,.43-.09,1.19-1.66,2.31-1.67-.07-2.3,1.78-4.88,1.19-7l-1-.17c-1.85-.33-3.3-3-4.5-3.92.31-1.86,1.12-4.17,1-6.05,1-.61,2-2.77,3.52-2.5l1,.18c1.53,2.15,3.18,7.05,5.78,8.3,1.08.49,3,.07,4,.72-1.83,3.45-1.67,4.94-3.55,8.68,3.35,2.21,8.75,6.67,14.67,4.68,5.31-1.8,2.57-6.32,2.55-8.86,0-2.71,1.76-3.55,1.86-4.87a60.53,60.53,0,0,0,19.71-.65c.3-.11,1-1.82,1.3-1.81l2,.36c1.9-2.2.87-5.83,2.55-8.9,1.09-2.05,4.65-2.58,5.87-4.15,1.38-1.83.64-3,1.85-4.82,4.27.92,13.38,3,18.35,1.18,2.21-.85,3.89-4.13,6-5.16,1-.53,1.91.71,3,.53,6.93-1.38,3.63-8.7,2-12,3.64-.31,10.27-.17,11.88-3.08.79-1.52,0-4.74,1-6l1,.18c4.31-1.35,7.84-4.87,11.52-7.29.92.66,2.91.1,4,.71,2.31,1.28,2,6.58,8.34,5.63.76-.11,2.3-2.16,3.52-2.49-.71-1.7.54-3.72-.15-5.21-.38-.69-5.06-3.77-5.34-5.06s1-1.94.51-3c9.84-.82,11.53-.07,12.19-11.28,3.77-1.53,7.11-1.51,10.87-3.25,1.16-.54,1.18-2.07,2.51-2.66.07-4.8-.06-11.3,4.22-12.69,7.95-2.61,9.17,4,12.46,5.33,4,1.55,5-.73,7.31-.77.17-2.46,1.51-1.39,1.67-3.81.09-1-1.65-3.61-1.15-5.39.12-.47,3.4-2.29,3.52-2.48.64-1.13-.24-2,.51-3-1.48-1-3.94-2.82-5.5-4.09,4-5.8,4-8,2.55-15.05a105.08,105.08,0,0,0,9.16,6.81c-.25,0,5,1,6,1.07,1-1.6,5.7-10.55,7-11.14,2.87-1.39,6.34.76,9.3-.41,2.35-.95,1.84-5.52.85-5,.71-1.53.07-3.55.84-5,.24-.41,2-.64,2.34-1.65,7.78,2,9,1.61,14.3.48,2-7.06,2.57-10.07-1.58-14.75-.46-.49-2.56-1.94-2.66-2.54-.4-2.31,1.16-4.68,1.19-7,1.67-.16,1.45,1.13,2.17-.65,1.51,1,3.44-.13,4.95.89,1.19.79.12,4.41,1.15,5.38,5.2,5.07,13.11,3.63,15.64-1.34,1.85-3.65.12-3.88.18-7.18l-2-.35,2.32-7.87a28.6,28.6,0,0,1-6-1.07c-.35-1.84,1.16-3.18.84-5-.12-.73-2.36-1.87-2.66-2.55-.74-1.91.41-3.11-.15-5.2,1.23-.4,2.26-2.41,3.51-2.48.67,0,2.25.86,3,.54,2.06-1,3.94-5.76,6.14-6.11,2.38-.44,6.54,1.26,9,1.61,2.47-5.14,5-9.16,7.36-13.13-.67-.66-.49-3.69-1.32-4.37-1.77-1.48-4.34-1.86-5.65-3.09-5.21-4.78,7.68-5.49,10.47-7.39,1.12-.79.52-3.09,1.71-3.83-1.07-.44-13.11-5.21-13.47-5.52s-2.08-8.45-2.44-9.71c5.23-.76,6-1.69,9.8-3.42-1.25-1.59-.72-4-2.16-5.51-1.21-1.34-2.19-.94-3.82-1.73.07-.19-.1-3.82-.15-5.2,3.36-.92,5.77-1.52,8.67-2.58-.28-1.54,1.08-3.48.84-5-.13-.68-2.36-1.87-2.66-2.5-.95-2.41-1.14-6.41-1.64-8.57-.8,1.55-.49-3.19-.49-3.19,4.69-1.72,2.57-8.14-2.61-8.7l-2.33,1.65c-2.08.58-3.53.65-5.34,1.11-.06.15-1.22,6.48-1,6,.39,1.35,2.17,2.5,2.49,3.55.64,2.31-.34,4.2,0,6.2-1.86-2.36-3.44-3.72-5.14-6.09-1.82.29-3.17-1.24-5-.9-1.3.18-3.53,4.08-4.8,4.31-1.82.25-3.21-1.24-5-.9l-.66-2.19c-.73,1.44-.35-4-.32-4.19.28-.16,3.22-1.25,3.34-1.47,1.15-2.4-.56-4-.15-5.2l-2-.36c-1.39.2-3.46,4.63-5,5.31-.76.32-2.29-.62-3-.54s-3.75,2.19-4.51,2.3c-6.31.81-11.77,0-19.29-1.4-2.38,3.38-2.24,3.28-4.52,8.46-.12,0-2.95-.57-3-.53a109.77,109.77,0,0,1,.87-11.19c2.37-.4,3.16.07,6.12.07.44-4.56,1.36-9.94.55-15.38,4.56,1.73,4.94,2.42,10,1.8l1.34-1.83c1.83-.38,5.12.92,7,1.25,0-.95,1.74-1.72,1.68-3.84-.05-4.31-5.16-9.16-7.09-12.61-1.33,1.29-.38,2.5-1.68,3.84-1,.94-1.94-.19-3.17.46s-2.67,3.41-3.84,4.44c-.11-.31-2.59-1.21-2.82-1.54-.7-1-.15-2.8-.29-4.15-1-.44-1.28-2.18-1.66-2.37-3.5-2-6,.29-8.34.57l-.82-1.18c1.37-6,.82-6.85.87-11.22-.76-.14-3.4-.16-4-.72Z"/></g></g></svg>