<?xml version="1.0" encoding="utf-8"?>
<!-- Generator: Adobe Illustrator 26.3.1, SVG Export Plug-In . SVG Version: 6.00 Build 0)  -->
<svg version="1.1" xmlns="http://www.w3.org/2000/svg" xmlns:xlink="http://www.w3.org/1999/xlink" x="0px" y="0px"
	 viewBox="0 0 2064 2672.4" style="enable-background:new 0 0 2064 2672.4;" xml:space="preserve">
<style type="text/css">
	.st0{opacity:0;}
	.st1{opacity:0.17;}
	.st2{fill:#FFBC00;}
	.st3{opacity:0.6;}
	.st4{fill:#FFFFFF;}
	.st5{fill:#000072;}
	.st6{opacity:0.3;}
	.st7{opacity:0.55;}
	.st8{fill:#FFBC00;stroke:#000072;stroke-width:38;stroke-miterlimit:10;}
	.st9{fill:#522D80;}
	.st10{fill:#390176;}
	.st11{fill:#F56600;}
</style>
<g id="Layer_2" class="st0">
	<g class="st1">
		<polygon class="st2" points="979.8,126.2 737.5,1358.7 627.4,1367.2 495.1,1377.5 474.5,1088.5 697.4,18.2 880.7,25.9 		"/>
		<g class="st3">
			<polygon class="st4" points="979.8,126.2 979.4,128.2 915.8,63.8 732.5,56.2 509.5,1126.4 527.3,1375 495.1,1377.5 474.5,1088.5 
				697.4,18.2 880.7,25.9 			"/>
		</g>
		<path class="st5" d="M495.1,1395.7c-9.6,0-17.5-7.4-18.2-17l-20.7-289c-0.1-1.7,0-3.4,0.3-5l223-1070.2
			c1.8-8.7,9.7-14.8,18.6-14.5l183.3,7.7c4.6,0.2,9,2.1,12.2,5.4l99,100.3c4.2,4.3,6.1,10.4,4.9,16.3L755.4,1362.2
			c-1.6,8-8.3,14-16.5,14.7l-242.4,18.8C496.1,1395.7,495.6,1395.7,495.1,1395.7z M492.8,1089.7l19.2,268.1l210.3-16.3L960,132.2
			l-87.2-88.3l-160.7-6.7L492.8,1089.7z"/>
		<path class="st5" d="M627.4,1385.5c-1.1,0-2.3-0.1-3.4-0.3c-9.9-1.9-16.4-11.4-14.5-21.3c0,0,0,0,0,0L862.8,22.5
			c1.7-9.9,11.1-16.6,21-14.9c9.9,1.7,16.6,11.1,14.9,21c0,0.2-0.1,0.5-0.1,0.7L645.3,1370.6
			C643.7,1379.2,636.2,1385.5,627.4,1385.5z"/>
		<g class="st6">
			<polygon class="st5" points="979.8,126.2 737.5,1358.7 627.4,1367.2 880.7,25.9 			"/>
		</g>
		<polygon class="st2" points="1365,289.3 848.2,1434.1 739,1417.3 607.9,1397.1 653.6,1111.1 1114.6,119.8 1291.4,169 		"/>
		<g class="st3">
			<polygon class="st4" points="1365,289.3 1364.1,291.1 1316.9,213.9 1140.1,164.7 679.1,1155.9 639.8,1402.1 607.9,1397.1 
				653.6,1111.1 1114.6,119.8 1291.4,169 			"/>
		</g>
		<path class="st5" d="M848.2,1452.3c-0.9,0-1.9-0.1-2.8-0.2l-240.3-36.9c-10-1.5-16.8-10.9-15.3-20.8c0,0,0,0,0-0.1l45.7-286.1
			c0.3-1.7,0.8-3.3,1.5-4.8l461-991.3c3.8-8.1,12.8-12.3,21.4-9.9l176.8,49.2c4.4,1.2,8.3,4.1,10.7,8.1l73.6,120.3
			c3.1,5.1,3.5,11.5,1.1,17L864.8,1441.6C861.9,1448.1,855.4,1452.3,848.2,1452.3z M628.8,1381.9l208.5,32l507.1-1123.4l-64.8-105.9
			l-154.9-43.1l-453.4,974.9L628.8,1381.9z"/>
		<path class="st5" d="M739,1435.5c-10.1,0-18.2-8.2-18.2-18.3c0-2.5,0.5-5,1.6-7.3l552.4-1248.3c4.1-9.2,14.9-13.4,24.1-9.3
			c9.2,4.1,13.4,14.9,9.3,24.1L755.7,1424.7C752.8,1431.3,746.2,1435.5,739,1435.5z"/>
		<g class="st6">
			<polygon class="st5" points="1365,289.3 848.2,1434.1 739,1417.3 1291.4,169 			"/>
		</g>
		<polygon class="st2" points="567.7,343.8 680,1594.8 576.7,1633.8 452.6,1680.7 351.9,1409 266.4,319.1 444.5,275.2 		"/>
		<g class="st3">
			<polygon class="st4" points="567.7,343.8 567.8,345.8 488.8,301.7 310.6,345.7 396.1,1435.6 482.8,1669.3 452.6,1680.7 
				351.9,1409 266.4,319.1 444.5,275.2 			"/>
		</g>
		<path class="st5" d="M452.6,1698.9c-7.6,0-14.5-4.7-17.1-11.9l-100.7-271.6c-0.6-1.6-0.9-3.2-1.1-4.9L248.1,320.6
			c-0.7-8.9,5.2-17,13.9-19.1l178.1-44c4.5-1.1,9.2-0.5,13.2,1.8l123.2,68.6c5.3,2.9,8.8,8.3,9.3,14.3l112.4,1251
			c0.7,8.2-4.1,15.8-11.7,18.7l-227.4,85.9C457,1698.5,454.8,1698.9,452.6,1698.9z M369.9,1405.1l93.5,252l197.3-74.5L550.3,355
			l-108.5-60.4l-156.1,38.6L369.9,1405.1z"/>
		<path class="st5" d="M576.7,1652c-9.4,0-17.2-7.1-18.1-16.5L426.3,276.9c-1-10,6.4-19,16.4-19.9c10-1,19,6.4,19.9,16.4L594.9,1632
			c1,10-6.4,19-16.4,19.9c0,0,0,0,0,0C577.9,1652,577.3,1652,576.7,1652z"/>
		<g class="st6">
			<polygon class="st5" points="567.7,343.8 680,1594.8 576.7,1633.8 444.5,275.2 			"/>
		</g>
		<polygon class="st2" points="1335.6,600.5 1269.7,1854.8 1161.8,1878.8 1032.3,1907.7 971.1,1624.5 1040.8,533.5 1223.4,515.2 		
			"/>
		<g class="st3">
			<polygon class="st4" points="1335.6,600.5 1335.5,602.5 1263.4,547.7 1080.9,566 1011.2,1657.1 1063.8,1900.7 1032.3,1907.7 
				971.1,1624.5 1040.8,533.5 1223.4,515.2 			"/>
		</g>
		<path class="st5" d="M1032.3,1925.9c-8.6,0-16-6-17.8-14.4l-61.2-283.2c-0.4-1.6-0.5-3.3-0.4-5l69.7-1091
			c0.6-8.9,7.5-16.1,16.4-17l182.6-18.3c4.6-0.5,9.2,0.8,12.9,3.6l112.2,85.4c4.8,3.7,7.5,9.4,7.2,15.5l-65.9,1254.3
			c-0.4,8.2-6.3,15.1-14.3,16.8l-237.3,52.8C1035,1925.7,1033.7,1925.9,1032.3,1925.9z M989.5,1623.1l56.8,262.7l205.9-45.8
			l64.7-1230.8l-98.8-75.2l-160,16L989.5,1623.1z"/>
		<path class="st5" d="M1161.8,1897.1h-0.8c-10.1-0.5-17.9-9-17.4-19.1l61.6-1363.7c0.6-10.1,9.2-17.8,19.3-17.2
			c9.9,0.6,17.5,8.9,17.2,18.8l-61.5,1363.7C1179.6,1889.4,1171.6,1897.1,1161.8,1897.1z"/>
		<g class="st6">
			<polygon class="st5" points="1335.6,600.5 1269.7,1854.8 1161.8,1878.8 1223.4,515.2 			"/>
		</g>
		<polygon class="st2" points="2045.8,685.9 1566,1846.7 1456.3,1833.5 1324.6,1817.5 1361.2,1530.1 1790.1,524.6 1968.4,568.1 		
			"/>
		<g class="st3">
			<polygon class="st4" points="2045.8,685.9 2045,687.8 1995.3,612.1 1817.1,568.6 1388.1,1574.2 1356.6,1821.4 1324.6,1817.5 
				1361.2,1530.1 1790.1,524.6 1968.4,568.1 			"/>
		</g>
		<path class="st5" d="M1566,1865c-0.7,0-1.5,0-2.2-0.1l-241.3-29.2c-10-1.2-17.1-10.3-15.9-20.3c0,0,0-0.1,0-0.1l36.5-287.4
			c0.2-1.7,0.7-3.3,1.3-4.9l429-1005.5c3.5-8.2,12.4-12.7,21.1-10.6l178.3,43.5c4.5,1.1,8.4,3.9,10.9,7.7l77.3,117.8
			c3.3,5.1,3.9,11.4,1.6,17l-479.8,1160.8C1580,1860.5,1573.4,1865,1566,1865z M1345.1,1801.6l209.4,25.3l470.8-1139.1l-68.2-103.8
			L1800.8,546l-421.9,989L1345.1,1801.6z"/>
		<path class="st5" d="M1456.3,1851.7c-10.1,0-18.3-8.2-18.2-18.3c0-2.3,0.5-4.7,1.3-6.8l512.1-1265.4c3.7-9.4,14.3-14,23.7-10.3
			c9.4,3.7,14,14.3,10.3,23.7c0,0.1-0.1,0.2-0.1,0.3l-512.1,1265.4C1470.4,1847.2,1463.8,1851.7,1456.3,1851.7z"/>
		<g class="st6">
			<polygon class="st5" points="2045.8,685.9 1566,1846.7 1456.3,1833.5 1968.4,568.1 			"/>
		</g>
		<polygon class="st2" points="1763.1,396.5 1415.5,1603.5 1305.1,1602.5 1172.4,1601.3 1176.7,1311.7 1491,264.6 1673,288 		"/>
		<g class="st3">
			<polygon class="st4" points="1763.1,396.5 1762.5,398.4 1704.7,328.7 1522.7,305.4 1208.4,1352.4 1204.7,1601.6 1172.4,1601.3 
				1176.7,1311.7 1491,264.6 1673,288 			"/>
		</g>
		<path class="st5" d="M1415.5,1621.7h-0.2l-243.1-2.2c-10.1-0.1-18.2-8.3-18.1-18.4c0,0,0-0.1,0-0.1l4.3-289.7c0-1.7,0.3-3.4,0.8-5
			l314.3-1047c2.6-8.6,10.9-14,19.8-12.9l182,23.4c4.6,0.6,8.8,2.9,11.7,6.5l90,108.5c3.9,4.6,5.2,10.9,3.5,16.7l-347.5,1207
			C1430.8,1616.3,1423.7,1621.7,1415.5,1621.7z M1191,1583.2l210.9,1.9l341-1184.4l-79.3-95.5L1504,284.6l-309.1,1029.8L1191,1583.2
			z"/>
		<path class="st5" d="M1305.1,1620.8c-10.1,0-18.3-8.2-18.3-18.3c0-1.7,0.2-3.3,0.7-4.9L1655.4,283c2.7-9.7,12.8-15.4,22.5-12.7
			c9.7,2.7,15.4,12.8,12.7,22.5l-367.9,1314.6C1320.4,1615.3,1313.3,1620.7,1305.1,1620.8z"/>
		<g class="st6">
			<polygon class="st5" points="1763.1,396.5 1415.5,1603.5 1305.1,1602.5 1673,288 			"/>
		</g>
		<g class="st7">
			<path class="st4" d="M1668.4,1011.9c-2.9-0.9-5.8-1.7-8.7-2.2l-263-48.8c-49.7-9.1-99.1,17.4-119,63.9
				c-68.6,158.9-240,255.2-417.3,222.3c-97.2-17.9-183.5-73.1-240.5-153.9c53,50.2,119.5,84,191.3,97.2
				c177.3,32.9,348.7-63.4,417.3-222.3c20-46.5,69.2-73.1,118.9-63.9l263.1,48.8C1640.3,958.5,1663.4,982,1668.4,1011.9z"/>
		</g>
	</g>
</g>
<g id="Layer_4">
	<path class="st8" d="M333.9,1538.9 M1053.2,1294.7 M591.1,1656.2c-16.6,52.8-64.7,79.9-107.3,60.6c-42.5-19.4-63.6-78.1-47-130.9
		c51.8-164.7,151-220.7,223.5-261.6c65.5-37,108.8-61.4,135.7-146.9c26.9-85.4,7.9-138.2-20.8-218.2
		c-31.8-88.4-75.3-209.4-23.4-374.2c51.8-164.7,151-220.7,223.4-261.6c65.5-37,108.8-61.4,135.7-146.9
		c16.6-52.8,64.7-79.9,107.3-60.5c42.5,19.4,63.7,78.1,47,130.9c-51.8,164.7-151,220.7-223.5,261.6c-65.5,37-108.8,61.4-135.7,146.8
		c-26.9,85.4-7.9,138.3,20.8,218.2c31.8,88.4,75.3,209.4,23.5,374.1l0,0.1c-51.8,164.7-151,220.7-223.5,261.6
		C661.3,1546.4,618,1570.8,591.1,1656.2L591.1,1656.2z"/>
	<path class="st8" d="M981.9,1448 M453.7,1026.4 M734.3,1440.3c2.1-69.1-26.9-101.3-70.8-150c-48.5-53.8-115-127.6-110.8-260.8l0,0
		c4.2-133.2,75.1-202.7,126.9-253.4c46.8-45.9,77.8-76.2,80-145.3c2.2-69.1-26.8-101.3-70.7-149.9C640.3,427,573.8,353.3,578,220.1
		c1.3-42.7,35.7-76.4,76.7-75.1c41,1.3,73.2,37,71.9,79.7c-2.2,69.1,26.8,101.3,70.7,150c48.5,53.8,115,127.6,110.8,260.8
		C904,768.7,833,838.1,781.2,888.8c-46.8,45.9-77.8,76.2-80,145.3c-2.2,69.2,26.8,101.3,70.7,150c48.5,53.8,115,127.6,110.8,260.8
		c-1.3,42.7-35.7,76.4-76.7,75.1C765.2,1518.7,733,1483,734.3,1440.3L734.3,1440.3z"/>
	<path class="st8" d="M594.9,1376.2 M1249.1,1206.3 M824.2,1470c-16.2,39.5-60.2,59.1-98.1,43.6c-37.9-15.5-55.6-60.3-39.5-99.8
		c50.5-123.4,141.2-163.6,207.4-193.1c59.9-26.6,99.5-44.2,125.7-108.2c26.2-64,10.2-104.3-13.9-165.2
		c-26.7-67.4-63.2-159.7-12.7-283.1c50.4-123.4,141.2-163.6,207.4-193c59.9-26.6,99.5-44.2,125.7-108.2
		c16.2-39.5,60.2-59.1,98.1-43.6c37.9,15.5,55.6,60.3,39.5,99.8c-50.5,123.4-141.2,163.7-207.4,193.1
		c-59.9,26.6-99.5,44.2-125.7,108.2c-26.2,64-10.2,104.3,13.9,165.2c26.7,67.4,63.2,159.7,12.7,283.1l0,0
		c-50.5,123.4-141.2,163.6-207.4,193.1C890,1388.5,850.4,1406,824.2,1470L824.2,1470z"/>
	<path class="st8" d="M974.2,1508.9 M1628.3,1339 M1203.5,1602.7c-16.2,39.5-60.2,59.1-98.1,43.6c-37.9-15.5-55.6-60.3-39.5-99.8
		c50.5-123.4,141.2-163.6,207.4-193.1c59.9-26.6,99.5-44.2,125.7-108.2c26.2-64,10.2-104.3-13.9-165.2
		c-26.7-67.4-63.2-159.7-12.7-283.1c50.4-123.4,141.2-163.6,207.4-193c59.9-26.6,99.5-44.2,125.7-108.2
		c16.2-39.5,60.2-59.1,98.1-43.6c37.9,15.5,55.6,60.3,39.5,99.8C1792.7,675.3,1702,715.6,1635.7,745
		c-59.9,26.6-99.5,44.2-125.7,108.2c-26.2,64-10.2,104.3,13.9,165.2c26.7,67.4,63.2,159.7,12.7,283.1l0,0
		c-50.5,123.4-141.2,163.6-207.4,193.1C1269.3,1521.2,1229.7,1538.7,1203.5,1602.7L1203.5,1602.7z"/>
</g>
<g id="Layer_3">
	<path class="st8" d="M217.3,1614.1 M717.3,1159.3 M463.9,1590.4c4.1,42.5-25.8,80.3-66.6,84.2c-40.8,3.9-77.3-27.5-81.4-70
		c-12.7-132.7,48.9-210.5,93.8-267.4c40.7-51.4,67.5-85.4,60.9-154.2c-6.6-68.8-39.4-97.1-89.1-139.8
		c-55-47.3-130.2-112-142.9-244.7c-12.7-132.7,48.8-210.5,93.8-267.4c40.7-51.4,67.5-85.4,60.9-154.2c-4.1-42.5,25.8-80.3,66.6-84.2
		s77.3,27.5,81.4,70c12.7,132.7-48.8,210.5-93.8,267.4c-40.7,51.4-67.5,85.4-60.9,154.2c6.6,68.8,39.4,97.1,89.1,139.8
		c54.9,47.3,130.2,112,142.9,244.7l0,0c12.7,132.7-48.8,210.5-93.8,267.4C484.2,1487.6,457.3,1521.6,463.9,1590.4L463.9,1590.4z"/>
	<path class="st8" d="M1348.3,1790.3 M807,1323.8 M1061.4,1780.9c14.6-76.2-13.6-111.7-56.1-165.5c-47.1-59.5-111.6-141-83.4-287.8
		l0,0c28.2-146.8,122.9-223.1,192.1-278.8c62.6-50.4,103.9-83.7,118.5-159.8c14.6-76.1-13.5-111.7-56.1-165.5
		c-47.1-59.5-111.5-141-83.4-287.8c9-47.1,55-84.1,102.4-82.5c47.5,1.6,78.7,41.1,69.7,88.1c-14.6,76.2,13.5,111.7,56.1,165.6
		c47.1,59.5,111.5,141,83.4,287.8c-28.2,146.8-122.9,223.1-192.1,278.8c-62.6,50.4-103.9,83.7-118.5,159.8
		c-14.6,76.2,13.5,111.8,56.1,165.6c47.1,59.5,111.6,141,83.4,287.8c-9,47.1-55,84.1-102.5,82.5
		C1083.6,1867.5,1052.3,1828,1061.4,1780.9L1061.4,1780.9z"/>
	<path class="st8" d="M326.4,1254.7 M919.4,930.3 M571.7,1289.7c-6,42.3-44,72-84.5,66.2c-40.6-5.8-68.7-44.9-62.6-87.2
		c18.8-131.9,97-193.1,154.1-237.8c51.6-40.4,85.7-67.1,95.5-135.6c9.8-68.4-15.5-103.6-53.8-156.9C578.1,679.5,520.2,598.9,539,467
		c18.8-131.9,97-193.1,154.1-237.8c51.6-40.4,85.7-67.1,95.5-135.6c6-42.3,44-72,84.5-66.2c40.6,5.8,68.7,44.9,62.6,87.2
		c-18.8,131.9-97,193.1-154.1,237.8c-51.6,40.4-85.7,67.1-95.5,135.5c-9.8,68.4,15.5,103.6,53.7,156.9
		c42.3,58.9,100.2,139.5,81.4,271.4l0,0c-18.8,132-97,193.1-154.1,237.8C615.6,1194.6,581.5,1221.3,571.7,1289.7L571.7,1289.7z"/>
	<path class="st8" d="M1268.2,1744.8 M1894.3,1490.4 M1507.8,1807.7c-10.8,41.3-51.9,66.5-91.5,56.1c-39.6-10.4-63.1-52.5-52.3-93.8
		c33.8-128.9,118.5-180.8,180.3-218.7c55.9-34.2,92.8-56.9,110.4-123.8c17.5-66.9-3.6-104.7-35.5-162c-35.3-63.3-83.6-150-49.8-279
		c33.8-128.9,118.4-180.8,180.2-218.6c55.9-34.2,92.8-56.9,110.4-123.8c10.8-41.3,51.9-66.5,91.5-56.1
		c39.6,10.4,63.1,52.5,52.3,93.8c-33.8,128.9-118.4,180.8-180.3,218.7c-55.9,34.2-92.8,56.9-110.4,123.7
		c-17.5,66.9,3.5,104.7,35.5,162c35.3,63.3,83.6,150,49.8,278.9l0,0c-33.8,128.9-118.4,180.8-180.3,218.7
		C1562.3,1718.2,1525.4,1740.8,1507.8,1807.7L1507.8,1807.7z"/>
	<path class="st8" d="M1384.6,1607.6 M1867.2,1134.4 M1630.2,1574.7c5.7,42.3-22.8,81.2-63.4,86.6c-40.6,5.4-78.3-24.6-84-66.9
		c-17.7-132.1,40.9-212.2,83.7-270.7c38.7-52.9,64.3-87.9,55.1-156.4c-9.2-68.5-43.1-95.5-94.3-136.4
		c-56.7-45.2-134.3-107-152-239.2c-17.7-132.1,40.9-212.2,83.7-270.7c38.7-52.9,64.3-87.9,55.1-156.4c-5.7-42.3,22.8-81.2,63.4-86.6
		c40.6-5.4,78.3,24.6,84,66.9c17.7,132.1-40.9,212.2-83.7,270.7c-38.7,52.9-64.3,87.9-55.1,156.4c9.2,68.5,43.1,95.5,94.3,136.4
		c56.7,45.2,134.3,107,152,239.1l0,0c17.7,132.1-40.9,212.2-83.7,270.7C1646.6,1471.2,1621,1506.2,1630.2,1574.7L1630.2,1574.7z"/>
</g>
<g id="Layer_1">
	<path class="st9" d="M1666.3,1044.3l-416.8,1386.4c-32.2,107.1-139.9,172.7-249.8,152.3l-802.3-148.8C88,2414,11.2,2315,18.8,2204
		l97-1424.2c3.4-50.6,47.2-88.8,97.8-85.3c3.5,0.2,7.1,0.7,10.5,1.3l189.2,35.1c49.7,9.2,86.1,51.8,88.1,102.3
		c7,172.9,132.4,324.3,309.8,357.2s348.7-63.4,417.2-222.4c20-46.5,69.2-73.1,119-63.9l263,48.8c39,7.2,64.8,44.7,57.6,83.8
		C1667.6,1039.3,1667,1041.8,1666.3,1044.3z"/>
	<path class="st10" d="M1039.9,2589.5c-13.7,0-27.3-1.3-40.8-3.8l-802.3-148.8C86.2,2416.3,8.5,2316.1,16.1,2203.8l97-1424.2
		c3.5-52,48.5-91.4,100.6-87.9c3.7,0.2,7.3,0.7,10.9,1.4l189.3,35.1c51,9.5,88.2,52.6,90.3,104.8c7.1,176.5,133.6,322.4,307.6,354.7
		s344.4-58.5,414.4-220.8c20.7-48,70.8-74.9,121.9-65.5l263,48.8c40.5,7.5,67.2,46.4,59.7,86.8c-0.5,2.7-1.1,5.3-1.9,7.9
		L1252,2431.5C1223.9,2525.2,1137.7,2589.4,1039.9,2589.5z M207.3,696.9c-46.9-0.1-85.8,36.3-89,83.1l-97,1424.2
		c-7.5,109.6,68.4,207.4,176.4,227.5l802.3,148.8c108.7,20.4,215.2-44.6,246.9-150.5l416.8-1386.4c11-36.6-9.7-75.2-46.3-86.2
		c-2.4-0.7-4.9-1.3-7.4-1.8L1347,906.8c-48.6-9-96.3,16.6-116,62.3c-83.8,193.6-308.7,282.6-502.3,198.8
		c-134.5-58.2-223.8-188.2-229.9-334.6c-2-49.8-37.4-90.8-85.9-99.8l-189.2-35.1C218.2,697.4,212.8,696.9,207.3,696.9z"/>
	<g class="st7">
		<path class="st4" d="M98.8,2388.6c-55-44.9-84.9-113.8-80.1-184.6l97-1424.2c3.5-50.6,47.3-88.8,97.9-85.3c3.5,0.2,7,0.7,10.5,1.3
			l189.2,35.1c37.1,7,67.8,32.8,81.1,68.1c-10-5.5-20.8-9.3-32-11.4l-189.3-35.1c-49.8-9.3-97.7,23.6-107,73.5
			c-0.6,3.5-1.1,7-1.3,10.5l-97,1424.2C64.8,2305.5,75.6,2350.2,98.8,2388.6z"/>
	</g>
	<path class="st9" d="M1362.6,2650.4l-362.9-67.3c109.9,20.4,217.6-45.2,249.8-152.3l416.9-1386.4c11.4-38-10.1-78.1-48.2-89.5
		c-2.5-0.7-5-1.4-7.6-1.8l341.1,63.3c49.9,9.3,82.8,57.2,73.5,107c-0.6,3.3-1.4,6.5-2.3,9.7l-410.5,1365.1
		C1580.1,2605.2,1472.5,2670.8,1362.6,2650.4z"/>
	<path class="st10" d="M1402.9,2656.8c-13.7,0-27.3-1.3-40.8-3.8l-362.9-67.3l1-5.2h0.1c108.6,20.2,214.9-44.7,246.6-150.4
		l416.9-1386.4c11-36.6-9.7-75.2-46.3-86.2c-2.3-0.7-4.7-1.3-7.1-1.7h-0.2l1-5.2h0.1l340.9,63.2c51.3,9.5,85.2,58.8,75.7,110.1
		c-0.6,3.4-1.4,6.7-2.4,10l-410.5,1365.1C1586.8,2592.6,1500.7,2656.8,1402.9,2656.8z M1363,2647.8
		c108.6,20.3,215.1-44.6,246.7-150.5l410.5-1365.1c14.2-47.1-12.5-96.8-59.7-111c-3.1-0.9-6.2-1.7-9.4-2.3l-313.9-58.2
		c28.3,17.9,41.2,52.4,31.6,84.5L1252,2431.5c-27.2,90.9-109.3,154.3-204.2,157.8L1363,2647.8z"/>
	<g class="st6">
		<path class="st5" d="M1362.9,2650.5c-0.1,0-0.2,0-0.4-0.1l-362.5-67.3c109.8,20.2,217.2-45.5,249.3-152.4l416.9-1386.4
			c8.7-28.8-1.5-60-25.5-78.1l253.8,47.1c49.8,9.2,82.8,57.1,73.5,107c-0.6,3.3-1.4,6.5-2.4,9.7l-410.5,1365.1
			C1529.3,2581.6,1452.9,2643.3,1362.9,2650.5z"/>
	</g>
	<path class="st5" d="M1040,2605.1c-14.7,0-29.3-1.3-43.7-4L194,2452.2c-118.5-22-201.6-129.3-193.4-249.5l97-1424.2
		c4.1-60.6,56.5-106.4,117.2-102.3c4.3,0.3,8.5,0.8,12.7,1.6l189.3,35.1c58.2,10.8,100.6,60,103,119.5
		c6.8,169.2,128.1,309,294.9,340s330.1-56.1,397.2-211.6c23.6-54.7,80.7-85.4,139-74.6l263.1,48.8c48.9,9.1,81.3,56.1,72.2,105
		c-0.6,3.2-1.4,6.4-2.3,9.6L1266.9,2436C1236.9,2536.3,1144.7,2605,1040,2605.1z M207.3,712.5c-38.7,0-70.8,29.9-73.4,68.5
		L37,2205.2c-6.9,101.7,63.5,192.5,163.7,211.1l802.3,148.8c100.8,18.8,199.6-41.4,229-139.6l416.8-1386.4l0,0
		c8.5-28.4-7.5-58.3-35.9-66.8c-1.9-0.6-3.8-1-5.7-1.4l-263.1-48.8c-41.4-7.7-82,14.2-98.9,53.2c-87.2,201.5-321.2,294.2-522.8,207
		c-140-60.6-233-195.9-239.3-348.3c-1.7-42.4-31.8-77.4-73.2-85.1l-189.3-35.1C216.3,712.9,211.8,712.5,207.3,712.5z"/>
	<path class="st5" d="M1402.9,2672.4c-14.7,0-29.3-1.3-43.7-4L996.3,2601c-9.9-1.6-16.7-11-15-21c1.6-9.9,11-16.7,21-15
		c0.2,0,0.5,0.1,0.7,0.1l362.9,67.3c100.8,18.9,199.6-41.3,229-139.6l410.5-1365.2c11.7-38.9-10.3-79.9-49.3-91.6
		c-2.5-0.8-5.1-1.4-7.7-1.9l-392-72.7c-9.9-1.8-16.5-11.4-14.6-21.3s11.4-16.5,21.3-14.6l0,0l392,72.7
		c59.8,11.1,99.2,68.5,88.1,128.3c-0.7,3.9-1.7,7.8-2.8,11.6l-410.5,1365.2C1599.9,2603.6,1507.6,2672.4,1402.9,2672.4z"/>
	<path class="st11" d="M889.9,1350.9c-0.3,0.5-3,0.9-3.3,1.4c-1.5,2.6-0.2,5.1-0.2,7.2c-1.1,0-1.9,1.6-2.3,1.6
		c-3.8,0.6-8.1-2.4-12-2.2c-2.1,0.1-5.6,3.7-7.8,3.7c-4.8,0-6.8-3.4-11.2-1c-2.1,1.1-8.4,13-9.9,15.7c-1-0.8-2,0.1-3-0.6
		s-2-3.9-3.3-4.7c-8.5-5.4-9.4,2.2-14.2,4.6c-1.7,0.8-4.4,0.4-6.4,0.9c0,0-0.2-3.1-0.3-4.2c1.4-0.9,4.9-1.5,5.7-3.1
		c0.5-1.1,0-3.1,0.7-4c-0.8-0.8-1.7-0.9-1.7-2.4c-1.8-0.3-4.3-0.4-6-1.1c-1.2,1.2-4.2,2.7-4.9,4.2c-0.3,0.7,0,2.4-0.5,3
		c-1,0.9-5,1-5.5,2.1c-2.3,4.2-0.4,8.1,0.1,11.3l-2-0.4c-1.5,0.2-5.4,4.9-5.4,7.3c0,0.8,2.3,2.9,2.5,3.5s-0.1,3.6,0.3,4.2
		c0.7,0.9,2.3,0.5,2.8,1.6c-2.4,3.4-2.5,5.1-4.7,9.4c-0.5-0.4-2.4-0.4-3-0.6c-1.7-6-2.7-4.1,0.1-12.3c-0.9-0.7-2.7-3.3-3.5-3.7
		c-2.9-1.4-7.2-0.4-10-1.8c-0.9-0.5-0.9-3.9-2.3-4.5c-1.1-0.5-5-0.1-4.2,0.3c-1.6,1.9-3.4,3.7-5.2,6.2c-0.2,0.3-2,0.4-2.2,0.6
		c-0.9,1.5-0.6,4.9-2,5.8c-2.1,1.3-5.1-0.5-7.3,0.7c-1.6,0.8-6.9,14.8-4.9,16.6c2.8,2.6,4.9,1,7.2,0.3c1.7-0.6,1-1.8,1.7-3.8
		c0.7,0.3,2.8,1.6,2.8,1.6c-0.9,2.2-1.7,4.5-2.2,6.8c-1.1,0-1.9,1.6-2.3,1.6c-3.2,0.5-7.7-2.2-11-2l-1.3,1.8
		c-1.8,0.7-3.1-0.5-5.2,0.1c1.5-4.2,3.3-8.4,5.2-12.5c-1.7-1.1-0.5-0.2-0.7-2.2c-4.7-1.2-8.7-3.6-12.3-0.2c-4.8,4.4-4.2,9.8-2.6,15
		c-2.4,2-6.4,4.2-7.6,7.9c-0.4,1.2-0.1,4-0.9,5c-0.3,0.3-4.7,0-5.2,0.1c-0.6,1.9-1,4.4-2.2,6.8c1.3,0.5,2.6,1,3.8,1.7
		c0.9,1.1,0.2,4.4,1.1,5.4c-2.2-0.5-13.6-1.5-16.5,0.1s-0.8,12.3-2.8,16c-1.1,2-4.6,3.5-6,5.1c-5.8,6.4-10.1,11.3-16.3,16.6
		c-1.1,0.9-3.8,1.4-4.7,3.3c-5.2,11.7,1.7,8.4,4.5,10.1c0.7,0.4,3.4,3.9,4.3,4.9c-2.5,3.6-8.1,9-5.8,15.5c0.4,1.2,3.1,2.3,3.5,3.7
		s-1.5,0.5-1.5,2.8c0,6.1,6.5,7.4,12,8.4c-0.6,0.1-4.3,2.2-4.5,2.3c-10.2,1.1-8-2.9-13.4,5.8c-3.5-6.7-6.6-8.8-15.5-12.1
		c-1,1.4-2.2,1.6-3.5,2.5c1,4.9,0.7,7.1,2.1,11.7c-1.8,0.8-5.2,1.6-6.7,2.9s-1.5,3.7-2.9,4.6c-1.2,0.8-2.8-0.3-4.2,0.3
		s-3.7,3.2-4.9,4.3c0.3,0.8-0.5,3.2-0.7,4c4.9,2.2,5.4,2.9,11.9,3.2c-0.8,1,0.1,1.9-0.5,3l-2.2,0.6c-2.7,2.9-2,5.1-3.7,9.7
		c0.6,0.4,3.4,2.1,3.7,2.7c2.2,4.4,3,8,5.1,12.3c-2.2,1-8,2.3-9.1,4.6c-0.8,1.6-0.1,3.4-0.9,5c2.5,1.2,7,2.9,9.5,4.8
		c0.5,0.4,1.6,3.1,2.5,3.5c1.7,0.8,3.3,0.1,5,0.9c-1,2.2-1.9,4.3-3.4,7.7c-2.5-0.4-2.5-2.4-5.8-2.1c-0.6,0-2.5,2.2-3.5,2.5
		c2.6,7.8-1.4,5.1,9,7.8c0.5,2.8,1.1,6.1,1.6,8.6l1,0.2c0,4.4-2.3,5.5-2.7,9.8c-0.4,3.7,1.5,11.5,1.6,14.8c0,2.4-1.6,4.7-1.2,7
		c0.1,0.4,1.6,1.2,1.7,2.4c8.8-1.4,2.2,2.2,8.9-3.6c1,0.7,1.9-0.2,3,0.5c0.3,0.2,1.9,3.3,2.5,3.6c4.2,1.8,5.3-1,9,1.6
		c4.1,2.8-1.3,4.9-2.2,6.8c-0.5,1.1-0.1,3-0.7,4c6.5,6.6,8.7,10.2,19.7,11.8c0.8-1.3,1.7-3.5,2.9-4.7c1-0.9,3.5-0.5,4.4-1.3l-1.9,11
		c0,1.3,4.5,9.1,5.3,11.3c2.7,0.3,5.2,0.9,8,1.4c0.4-0.6,2.1-3.6,2.7-3.7c9.4-0.4,10.1,9.8,14.5,11.9c2.7,1.3,4.6,0.2,7.2,0.3
		c0.8,1.4,0.7,4.8,2.2,5.6c1,0.5,3.1,0,4,0.7c0.4-1,2.1-1.3,2.4-1.6c0.9-1.6,0-3.4,0.9-5c-0.9-0.4-5.3-1.3-6.9-2.3s-1.5-6-3-6.7
		l-2-0.4c-0.4-1.2,1-2.9,0.7-4c0.9-1,2.9-2.4,3.7-3.5c1.1,1.4,3.9,2.1,4.5,3.9c0.4,1-0.8,2.9-0.7,4c0.1,1.6,2.7,3.3,3.3,4.7
		c2,0,4,1.2,6,1.1c3.6-0.2,5.1-4,9.9-3.4c5.5,0.7,9.7,6.9,17.5,6.3c5.3-0.5,5.2-7.3,8.7-8.8c3.9-1.7,8.5,0.9,13.4,0.3
		c1.2-0.2,3.3-2,4.5-2.3c0.2-0.9,0.2-3.3,0.7-4c0.7-1,2.5-0.3,3.4-1.5c4.4,2.4,9.8,6.7,15.7,4.9c1.4-0.5,2.7-3.9,3.9-4.5
		s2.9,0.1,4.2-0.3c1.1-0.4,3.6-3,4.7-3.3c2.6-0.8,4.9-0.3,7.4-0.7c0,0,2.1-4.5,2-5.8c-0.1-1.6-3.2-3.6-3.3-4.7
		c-0.3-3.1,1.7-2.3,1.9-4.8c1.6-0.8,2.5-2.2,3.7-3.5c3.8,1.2,8,3.3,12,2.2c2.4-0.7,2.1-3,3.9-4.5c2.4-2,7.3-3.1,10-4.4
		c0.1-3.3-0.3-6.8,0.5-9.2c0.8-2.2,4.8-3.7,6-5.1c1.7-1.9,1.6-3.6,3-5.6c-0.3-0.3-2.6-2.2-2.7-2.6c-0.3-1.2,0.9-1.8,0.5-3
		c9-4.2,11-7,2.4-14c6.5-2,12.1-4.2,18.5-5.9c-0.3-1.4,0.6-3.6,0.9-5c-1.1-0.8-2.5-3.2-3.5-3.7c-3.8-2-6.5-1.1-8.6-3.6
		c-0.9-1.1,0-3.4-0.1-5.2c-2.4,0.4-1-3-1.3-4.4c0.2,0,5.5,1.4,3.8,1.7c6.5,0.4,17.9,1.7,13.7-7.8c-0.4-0.9-3.6-1.9-3.7-2.7
		c-0.3-2.1,2.6-4.5,2.4-7.8c-0.2-2.7-3.8-3.8-4.3-4.9c-1.5-3.5-2.3-4.6,2-5.8c0.7-6.9,0.3-6.7,4.7-9.5c1,0.1,2,0.3,3,0.6
		c0.4-1.1,1.1-5.7,2.2-6.8l6.5-1.9c-0.7-4.4-1.6-8.8-0.1-11.4c0.4-0.8,3.4-2.7,3.7-3.4c0.8-2.2-1.1-1.7-0.5-3.2
		c-1.2,0-4.1,0.3-4.2,0.3c-3.9,8-3.5,11-7.7,2.7c-2.7-0.2-2.5,0.8-4.3,1.3c0,0,1-6.3,1.4-8c8.3-0.4,5.1,0.4,10-4.4
		c0.8,0.8,2-0.1,3,0.6s0.7,3.7,1.3,4.4c4.1,4.1,10.7,3,15,2.7c-0.1-2,1.2-4,1-6c-0.2-1.2-3.1-4.2-3.2-5.7c-0.1-1.2,0.4-5.6,1.9-4.8
		l0.3-2c-0.1-0.7-2.4-3.2-2.5-3.5c-0.1-0.6,0.7-2.4,0.5-3c8-1.9,9-2.3,13.9-8.8l2.3-1.6c0.7-2.1-1.1-4.2,0.2-7.2
		c0.7-1.7,4.3-3.2,5-5.3s-0.9-5,0.4-8.2c0.8-1.9,5.4-4.5,6.2-6.1c1-2.1,0.5-4.8,1.2-7c-5.9-5-5.8-3.3-4.9-13.2
		c1.8-0.7,0.8-0.8,1.5-2.8l2,0.4c-0.3,2-1.1,5-1.4,8c0.2,0,5.6,0.8,4.1-0.3c0.6-1.1,2.9-4.8,4-5.4c0.3-1,0.4-2,0.5-3
		c-0.1-1.7-2.3-4.1-3.1-5.7c1-1.2,2.7-2.4,3.6-3.4s3.5-3.7,3.9-4.4c1.9-4.5-0.4-9-0.1-11.3c0.5-4,3.5-5.6,3.9-10.6l-1.5-3.4
		c-0.4-11.4,1.1-9.4-8.9-14c-0.8,1.9-2.5,5.4-3.4,7.6c-2,0.1-1.1-1.1-2.2,0.6c-3.5-0.8-7.8-2.3-9.8-2.8c1.8-7.6,1.7-10.4,0.9-17.3
		c-2.8-1.2-7.3-4.8-11.6-4.2c-0.8,0.1-2.3,2.1-3.5,2.4c-0.4,2.3-0.4,4.7-1.2,7l-2-0.4c-0.7-2.3,0.5-3.2-0.2-5.2
		c-1-2.7-5.6-5.8-5.6-9.3c0-5.8,3.7-5.3,3.9-10.6c0-1.4-6.6-14.3-7.8-14.8c-5.3-2.2-6.8,1.4-9.7,2.3c-3.5,1.1-7.5,1.3-10.7,2.2
		c0.5,6.8,2.3,19.8-9.7,14.7c-4.2-1.8-2.5-4.6-3.6-8.9c-0.2-0.7-2.6-1.9-2.6-2.5c-0.1-4.8,3.9-8.1,2.2-13c-1-2.8-4.8-2.7-7.5-4.5
		L889.9,1350.9z M569.6,1423.3c-0.7,0.8-2.4-0.1-3.2,0.5c-1.7,1.1-0.9,5.1-2.2,6.8c-1.2,1.6-7,3.2-10.6,1.2c0,0-1-5.7-4-6.9
		c-2.8-1.2-6.8-0.3-8.2-0.5l-2.4,7.8l-6.1,5.1l2.8,1.6c1.4,3.3,1.5,4.6,2.6,8.8c-1-0.7-3-0.2-4-0.7c-3.2-1.8-5.2-12.6-8.8-15
		c-4.5-3.1-13-4.4-18.6-6.5c-1.3,1.2-2.9,1.6-4.5,2.3c0,0-0.5,2.8-0.5,3c1.2,0.5,1.2,2.8-0.4,2c-0.3-0.7-0.5-1.4-0.6-2.2
		c-2.8-0.5-6.3-1-9-1.6c-2.3,6.4-5.7,8.8-9.5,12.7c-1.1-1.2-2.8-0.6-3.9-1.7c-0.6-1.4-1-2.9-1.3-4.4c7.1-0.7-11.4-1.7-4.2,0.3
		c-1.7,0.2-2.8-0.5-4.2,0.3l-7.3,5.9c-2,2.5-2.2,8-5.8,9.3c-1.6,0.6-6-0.3-7.2-0.3c-7.2,12-5,3.6-13.5,5.8c-1.4,0.3-2.6,3.7-3.9,4.5
		s-3-0.1-4.2,0.3l-1.4,1.8c-4.9,2-8.9,0.3-13.4-0.4c-0.8,1.3-1.7,4.1-3.1,5.7c-2.2,2.4-5.7,1.2-8.8,2.6
		c-3.9,1.6-14.3,13.1-16.9,13.5c-0.3,0-4.1-1.9-5.9-2.1c-3.8-0.4-10.4,0.4-13.6,0.6c-0.8,4.4-1.2,8.8-1.3,13.2
		c-2.2-1,0.1,1.2-2.2,0.6l-1.7-2.4c-3.2-1.5-7.7,1-8.8,2.6c-2.3,3.2-1.4,6.6-1.8,10c1.7,0.3,4.5,0.3,6,1.1
		c-2.9,11.3-1.7,11.7-12,9.2c-1.1,1-2.3,1.8-3.6,2.5c0.5,4.2-0.1,5.9,0.3,10.4c-0.4-0.2-4.5,0-6.2-0.1c0,0,1.4-5.1-10.4,0.2
		c-0.5,11.3-6.3,14.2-6.8,26.8c-3.3,1.2-7.1,3.1-10.1,4.4c0,1.8-0.9,3.2-0.9,5c0.1,2.6,2.6,6.5,2.5,9.8c-0.1,3.1-1,6.2-2.6,8.9
		c0,0.1-2.2,0.6-2.2,0.6c-2.2,6-1,13.9-1.3,19.5c1.2,0.6,2.6,0.4,2.9,1.6s-1.1,2.8-0.7,4c-0.9,0.7-3.8,1.4-4.6,2.3
		c-4.2,4.7-1.9,10-3.8,15.9c0,0-2,0.6-2.2,0.6l-0.4,2c-0.6,1.5-2.1,4.7-1.4,8c0.1,0.7,2.2,1.9,2.7,2.6l-0.4,2
		c10.3,2.6,10.4,2.7,17.2-3.1c0.7,0.4,2.7,1.6,2.9,1.6c-0.7,1.3-2.5,3-2.7,3.7c-0.6,1.4,0,6.2,0,6.2c0.4,0.4,2.6,2,2.7,2.6
		c0.4,2.5-1.2,5.5-1.4,8.1c-8.5-5.9-14.7-6.1-12.5,6c0.3,1.5-0.5,2.3,0.5,3.2c1.6,1.5,4.6,0.8,6.9,2.3c0.6,0.4,1.7,4.3,2.3,4.6
		c6.3,2.3,10-3.7,12.7-7.1c1,0.8,2.4,2.5,3.7,2.7c-4.7,6.3-3.1,5.6-2.1,12.1c-0.2,0.1-0.5,2.8-0.5,3c-0.3-1.6-1.6,2.4-1.5,2.8
		c0.2,6.2,8.6,7.1,14.2,7.8c-0.4,0.4-0.2,2.4-0.5,3c-1.5,2.5-8.7,4.2-11.3,5.2c0.3,1.8-1.2,3.2-0.9,5c0.2,1.1,4.9,6.8,6,7.3
		c4,1.8,11.9,0.5,14.6-0.5c1-0.3,3.3-3.3,4.7-3.3c3.3,0,4.1,2,6.7,3.3c-0.1,0-0.5,2.9-0.5,3c-12.8-0.8-16.7,1.7-11.5,12.4
		c5.6-0.4,6.8,0.6,12.4,0.2c-0.2,3.3-0.4,10,2.1,11.8c1.7,1.1,5,0.6,7,1.3c10.5,3.4,9.9,8,18.9-0.8c5.1,1.5,8.1,3,12.1,2.2l2.4-1.7
		c3.5,0.2,6.5,3,8.7,3.7c2.8,0.7,4.1-0.3,6.2,0.1c1.1-2.4,2-4.6,3.4-7.7c-1.4-1.4-2.9-2.7-4.5-3.9l0.4-2c3.6-1,7.8-2.8,11-3.2
		c3.6-0.5,9.1,0,12.1,2.2l1.7,2.4c5.1,1.7,8.2-1.1,11.6-1c2.3,0,5.8,2,8.1,1.4c3.3-0.8,4.2-7.1,6.8-9.1c2.7-2.2,8-2.6,11.1-4.2
		c-0.5-2.6,3,0.6,3,0.6c-0.2,9.4-1.5,7.6,7.5,10.7c2-2.6,5.5-8.2,9.6-7.6c1.8,0.3,0.3,1.5,2.8,1.6c0.3,1.5-1.2,3.5-0.9,5
		c0.1,0.6,2.2,2.4,2.5,3.6c1.2-0.2,2.8,0.8,4,0.7c3.3-0.3,6.3-7.3,8-10c11.3,1.5,8.8,2.2,14.3-4.7c4.4,1.4,6.8,1.5,11.1,2
		c0.4-1.1,2.1-1.3,2.4-1.7c1.1-2,0.1-5,1.2-7c0.9-1.7,5.4-2.6,6.9-4c1.6-1.5,2.3-4.4,4.1-5.5c3.4-2.1,8-1.4,10.3-5.4
		c1.1-2.1,0.4-4.8,1.2-7c0.4-1.2,3.7-4.3,4.1-5.5c2.1-7.5-2.2-9-6.1-12.5c-1.6,1.5-3.2,2.8-4.9,4.3c2.4,0.9-3.4,1.5-3.4,1.5
		c1.9-5.3,0.1-5.4,6.6-8.1c2.6-1.1,4.1-0.7,6.5-1.9c0.8-0.4,1.7-2.4,2.5-2.7c3.7-1,7.6,1.2,11.4,0c1.8-0.6,1.5-3.9,2.9-4.7
		c-1.1-3.2,0.2-3.4-2.1-5.6c-1.3-1.2-2.9-1.8-4.7-2.9c1.2-0.5,2.4-3.2,3.7-3.5c3.1-0.6,5.8,1.3,8.2,0.4c2.2-0.8,1.2-3,2.9-4.7
		c1.1-1.1,4.6-1.1,5.5-2.1c1.2-1.3,6.7-11.4,6.6-14.3c-0.1-1.7-3-3.5-3.3-4.7c-0.7-2.5,0.5-4,0.2-7.2c1.3,0.2,1.8-1.6,2.4-1.6
		c2.2-0.2,2.6,2.2,3.7,2.7c5.9,2.5,7.8-0.9,10.7-2.2c0.2-4.4,0.5-9.8,1.3-13.2c-4.3-3.3-6.6-2.1-5.6-9.3c0.9-7,4.5-5.8,5.6-8.3
		c0.8-2,0-5.8,0-6.2c0.8-9,4.1-9.3,3.1-18c1.4-0.2,3.6,0.7,5,0.9c4.1-5.9,3.3-3.3,2.9-10.8c-1.3-0.7-3.1-0.8-3.8-1.7
		c-1.9-2.5-3.2-6.5-4.6-9.1c4.9-2.7,8.6-5.5,13.8-7.8c-0.2-1.8,1.1-3.2,0.9-5c-0.1-0.6-2.3-3.5-2.3-4.6c-0.2-4.5,0.8-7.2,0.9-11.2
		c1.1,0.2,5.3,1.7,7.9,2.4c0,0,2-4.4,2-5.8c0-0.5-2.6-13.7-2.8-13.9c-0.8-1.1-3.7-2.1-4.7-2.9c2.3-4.4,7.1-12.1,1.6-15.2
		c-1.6-0.9-3.4,0-5-0.9c-0.9,1.6-1.8,3.1-2.9,4.6c-6.5,7.8-1,0.4-5.3,1.1c0.3-1.8,1.2-4.2,1-6c0.7-0.1,1.5-0.4,2.2-0.6
		c0.7-1.4,1.2-1.1,2.3-1.6c-0.5-2.1-0.8-4.2-1-6.4c-1.9,0.5-8.7,2-10.5,1.2c-0.2-0.1-2-3.3-2.5-3.6c-1.1-0.5-3-0.1-4-0.7
		c-0.9,0.6-4,4.1-4.9,4.3c-1.2,0.1-2.9-1.1-4-0.7c3.5,0.6,0.3-13.3,0.2-13.4c5.5-1,5.8-1.5,9.9-3.4c-0.2-1.8,0.7-4.2,1-6
		c-4.2-1.6-5-2.4-10.9-3c-0.8-2.9-0.6-2.5-2.3-4.6c-3.4,1.3-4,2.5-8.9,3.6c-2.9,10-2.3,9.9,6.3,11.5c-2.8,3.8-2.7,5.4-4.9,10.5
		c-1.9-3.8-4.9-8.2-8.5-10.8l-1-0.2c-1.1-3.8,1-8.4,1.1-12.2c2.2,0,1.9,0.3,3.2-0.4c1.7-1.1,5.3-1.5,6.7-2.9c0.6-0.6,1.5-4,0.5-3
		c-0.3-0.2-0.8-4-1.3-4.4c-4.3-3.3-12.2-1.2-16-2.9c-2.7-1.2-3.1-7.9-5.6-9.3l-2-0.4L569.6,1423.3z M1186.1,1549.1l-2.2,0.6
		c-1.4,1.5-0.9,2.6-1.8,4.8c-4.3-2-6.3-2-10.6-4c-8.3,12-5.5,8.7-20.6,6.5l-5.3,1.1c-0.8,0-1.6-1.2-0.8-1.2c-1.3-0.9-3.7-0.1-5-0.9
		s-0.3-7.2-6.1-6.3c-0.1,0-3,3.4-0.5,3c0,0,0,5,0,6.2c-5.1,2.4-4.2,1.4-8.1,5.7c-2.8-1.4-3.9-1.4-5.7-3.1c-3.3-3.2-1-5-0.3-4.2
		c0.7-2.2,3.3-1.6,3-5.6c-0.1-1-3.1-2.8-3.5-3.7c-0.6-1.4-0.1-2.5-0.3-4.2c-0.3,0-3.4-1.4-4.8-1.9c-1.2,4.9-2.6,9.9-2.7,16
		c-2.5-0.2-8.7-1.7-12.2-1.2c-1.5,0.2-5.3,4-7,4.9c-1.1-0.8-3.7-0.7-5-0.9c-0.1-2.1-0.1-4.1,0-6.2c-2.7-1.2-6.2-4.7-11.6-4.2
		c-0.7,0-3.2,2.4-3.5,2.4l-2-0.4c-8.4,5.7,2.5,9.4,6.1,12.4c1.1,0.9,2.2,3.7,3.3,4.7c-1.6,0.6-3.1,1.4-4.5,2.3
		c-3.8-3.9-8.1-8.4-16.3-7.1c-1.8,0.2-3.9,2.9-5.7,3.1c-2,0.2-4-1.1-6-1.1c-0.4-4.2-1.2-12.4-6-13.4c-1.5-0.3-3.2,1-5.3,1.1
		c-0.4,1-2.1,1.2-2.3,1.6c-1.4,2.5-2,6.9-2.5,8.8c-7.6,0.6-13,1.8-21.8,1.2c-2.2,3.7-3.6,6.2-5.7,9.3l-2-0.4l0.3-2
		c-0.9-5.1-6.1-3.9-9.6-3.8c-2.6,7.4-4.8,8.6-8.5,13.9c-8-4.4-6.2-3.9-13-2.4c-0.3,1.8-0.3,4.3-1,6l2.8,1.6c0,0-0.5,2.8-0.5,3
		c-4.9-1.7-7.8-1.6-12-2.2c-0.8,2.2-3.1,1.5-3,5.6c0,0.2,2.5,4.5,2.3,4.5c-3,0.7-5.6,7.2-6.9,10.1c-8.6,0.6-12.5-0.4-19,2.7
		c0,2.3-1.6,4.7-1.2,7c0.4,2,5.1,4.4,6.2,6.3c1.2,2.3,0.8,7,2.6,8.7c2,1.9,4.5,0.5,6,1.1c0.2,0.1,0.8,2,1.7,2.4c0,0.1-2.8,5.6-2,5.8
		c-6.5-1.9-8.5-2.2-15.2-1.7c1.2-4.6,3.6-11.1-0.8-13.5c-1-0.6-3-0.1-4-0.7c-0.5,1-2.2,1.2-2.3,1.6c-2.4,4.3,1,6.9-0.9,11.2
		c-1.1,2.3-16.6,11-19.9,13.9c1,1.3,0.2,2,0.3,4.2c2.3,1.1,6,3.7,8.5,4.6c-12,0.8-18.4,3.8-15.1,15.8c-3.9,1.8-14.1,9.6-14.1,16
		c0,1.4,3.1,3.7,3.3,4.7s-1,2.9-0.7,4c-2.4,0.9-15.1,7.2-15.9,8.5c-1,1.7-0.3,4.2-1,6c1.3,0.5,2.6,1,3.8,1.7c0.7,0.6,0,2.7,0.5,3.2
		c-2.1,2.4-7.3,5.1-8.6,7.8c-1.8,4-0.1,12.1-4.2,12.7c-2.4,0.3,2,6.6,2,6.6l-0.2,1c0.7,0.5,2,3.9,2.3,4.6c0.7,1.3,1.5,2.5,2.5,3.6
		c-2.7,2.7-8.7,7-7.6,14.1c0.1,0.8,2.2,2.4,2.5,3.6c2.4-0.1,4.8,0,7.2,0.3l-1.7,10c0.6-2.1-1.8,10.5-1.1,12.2c0.4,1.2,4.6,2,5.6,3.1
		c0.6,0.7,0.5,3.6,1.3,4.4c2,1.8,6.5,3.5,8.5,4.6c-0.5,2.6-2.2,7.4-1.7,10c0.6,3.1,5.4,3.8,8.3,5.7c1.2-1.3,3.3-2,4.7-3.3
		c1.1-1,1.8-2.6,2.7-3.7c0.4,2.6,1.3,10,3.1,12c3,3.3,6.9,2.9,11.8,3.2c-0.6,0.6-0.2,2.3-0.5,3c-0.5,1-4.8,3.4-5.8,4.1
		c0.7,1.4,0.8,4,1.2,5.4c3.2,0.6,6.2,0.7,10,1.8c1.5,0.4,3.5,3.6,7.7,3.4c0.9-0.1,3.8-3.2,4.7-3.3c1.2-0.2,2.8,1,4,0.7
		c4.3,9.2,0.5,8.9,12.1,13.5c4.2-4.2,8.9-13.9,18.2-10.2c0.5,0.2,2.3,4.3,3.3,4.7c3.6,1.4,6.2-1.1,10.2,0.8c0.9,0.4,1.5,3.8,2.3,4.6
		c1.4,1.2,3.2,0.5,4.8,1.8c0.9,0.8,0.6,3.6,1.3,4.4c1.5,1.6,13.1,8.6,17.1,8.3c1.8-0.2,3.6-4,5.9-4.1c5.6-0.4,7.4,3.7,12.8,3.3
		c3.7-0.2,7.1-6.8,8.9-9.8c13.3,4.3,9.1,2,17.8-2c1.8-0.8,3.7-0.2,5.3-1.1c1-0.5,2.6-3.3,3.7-3.4c4.3-0.6,8.6,2.6,13,2.3
		c1.8-0.2,4.1-2.5,5.7-3.1c0-1.8-0.3-4.7-0.1-5.2c-2.2-1.5-4.4-3.9-6.3-5.3c3.3,0.9,7.7,2.8,9.8,2.8c3.7,0.1,13.7-5.2,14.9-8.7
		c1-3.2-3.4-8.1,1.5-9c2.6-0.5,6.3,1.5,9,1.6c2.4,0,7.4-2,9.6-2.4c-0.2-1.4,0.6-3.6,0.9-5c-6.2-4.4-7.5-4.9-15.1-1.7l-1.3,1.8
		c-3.6,0-2.5-2.3-4.6-2.9c0.5-1.5,1.8-4.5,1.8-4.8c7.8,2.1,11.6,2.8,16.7-1.1c9-7.2,5.1-10.4-3.6-15.1c0.7-1-0.2-1.9,0.5-3
		s4.1-2.2,4.7-3.3s0-3,0.7-4l2,0.4c-0.1,1.3-0.4,2.7-0.7,4c1.2,0.9,2.2,1.1,2.6,2.5c5.7-0.8,15.3-2.8,16.8-8.3
		c2.3-8.4-8.1-10.1-13.6-10.7c3.3-5.3,4.6-8.3,4.7-15.6c2.6-0.4,3.6,0.2,6.2,0.1c0.4-1.1,2.1-1.3,2.3-1.6c2.7-5,0.6-5.1,4.5-8.5
		c1.5-1.3,3.8-2,5.6-3.1c-0.4,0.8-2.5,3.1-2.7,3.6c-1,3.2,1.2,4.5-0.2,7.2c-0.5,0.9-4.7,2.5-5.6,3.1c0.2,1.4-0.6,3.6-0.8,5
		c4.7,1.8,3.6,5.3,10.1,0.8c2.1-1.5,1.6-3.1,3-5.6c0.8,0.8,3,0.1,4,0.7c0.7,0.4,1,4.5,1.2,5.4c4.2-1.2,9.5-0.7,12-4
		c0.6-0.8,5.4-13.7,5.5-14.5c0.1-1.7-2.2-3.7-0.8-7.4c0,0,5.9-7.1,6.5-8.1c-3.3-1.6-3.9-3-7.5-4.4c0.6-0.2-0.1-2.8,0.5-3
		c1.6-0.6,3.6,0,5.2-0.1c0.1-1.1,0.3-6.2,1.4-8c0.4-0.8,3.6-1.8,4.5-2.3c-1.5-5.4-1.6-8.4-2.8-13.9c2.3-0.7,4.1,0,6.3-0.9
		c0.9-0.4,2.7-3.3,3.7-3.4c3.4-0.7,6.2,1,9.1,0.6c2-0.3,3.6-2.5,6.5-1.9c6.1,1.2,6.3,7.7,7.1,12.6c1-0.4,3.7-1.4,4.3-1.3
		c0.5-5.4,1.6-7.5,3-11.8c0.4-1.2-0.5-2.7-0.7-2.2l0.5-3c3.9-2.1,7.4-4.1,11.3-6.2c-0.1-2,1.2-4,1-6l-1.7-2.4c0,0-0.6-2-0.7-2.2
		c-3.3-0.1-7.2,0.7-10.2-0.8c-0.4-0.2-1.7-3-2.4-3.5c3-3.4,3.8-4.6,7.3-6.9c-0.4-5.5-1.4-20.9,0.3-25.7c1.3-3.8,7.9-5.6,9.6-8.5
		c4.2-7.4,1.9-26.4-2.3-29.2c-4.4-2.9-10.4-0.7-14.7-3.7c-1.4-1-0.4-3.8-1.2-5.3c-1.6-3.2-5.9-3.1-8.3-5.6c-2.7-3-4.1-15.8-7.2-17.8
		c-1-0.6-2.2,0.2-3-0.6c-3.5,9.6-3.1,9.3-13,10c-0.5-1.4-0.4-3.7-1.2-5.4c-0.6-1.2-4.3-2.8-4.5-3.9c-0.5-4,3.1-5.3,2.7-9.8
		c-0.2-1.6-3.4-3.7-4.3-4.9c0,0,1.2-1.7,1.3-1.8c2.4,0.6,5.8,0.3,8,1.5c1.9,1,2.5,6,5,7.1c12.1,5.5,11-4.3,6.6-9.1
		C1192.1,1553.6,1189.4,1552,1186.1,1549.1L1186.1,1549.1z M771.4,1747.1c-0.8-0.1-1.6,0.3-2.2-0.3c-0.6,0.7-3.4,1-4.3,1.3
		c0,0.5-2.2,13-2.2,13c-0.6,0.6-2.7,0.8-3.4,1.5c-0.5,0.6-1.3,4.5-1.9,4.8c-1.8,1-2.6,0.1-5.2,0.1c1.1,0.9-2.6,0.8-3.2,0.5
		c-0.4-0.2-0.7-1.9-1.7-2.4c1.6-5.2,3.9-10.8-0.7-13.6c-1.9-1.2-2.6,1-5.2,0.1c-0.8-0.3-2.7-3.4-3.5-3.7c-7.6-3.2-12,1.5-16.1,3.3
		c-0.9-0.9-2,0.1-3-0.5c-1.4-0.9-1.8-4.8-3.1-5.8c-3.2-2.3-12.3-3.2-16.2-1.9c-5.2,1.7-4.5,12.9-8.1,17.2c-0.6,0.7-8,4.7-9.2,5.6
		c-1-1.3-4-6.6-5-7.1c-10-4.9-19.5,11.9-21.4-8c-0.5-0.2-3.6-2.2-5.8-2.1l-1.3,1.8c-3.7,1.5-7.2,5.4-2.6,8.8
		c0.8,0.6-1.6,0.9-1.3,1.8c-2.3,0.2-5.2,1.5-7.4,0.7c-2.5-1-1.4-5.4-7.3-5.5c-1.5,0-9.6,5.4-10.3,5.4c-2.3,0.1-6.8-1.9-9.9-2.8
		l-1.5,2.8c-8.3,0.6,1.4-4,2.9-4.7c0-1.6-0.3-4.9-0.1-5.2c-3.9-1.3-5.2-1.3-8.9-2.6c-0.5,1.2-1.4,1.1-2.4,1.6c0.3,4.3,0,6,0.5,9.4
		c-2.8,0.7-6-0.5-7.6,1.8c-1.3,1.8-2.2,7.4-2.6,8.8c-1.9-1-2.3,1.2-4.2,0.3c-1.2-0.6-1.3-4.8-3.2-5.8c-5-2.5-9.9-2.1-14.9-3.7
		c-2.6,10-8.4,15.7-14.1,21.3c-0.4-0.4-2.5-0.5-3-0.5c-1.3-4.9-1.2-3.9-1.3-10.6c-1.6-0.8-1.7,0.5-1.8-1.3c-1.1,0.3-2.9-0.9-4-0.7
		c-0.5,0-1.3,1.4-2.4,1.6c0,0-0.7,4.7,0.5,3.2c-0.4,0.9-1.7,3.8-1.7,3.8c-2.4,0-4.7-1.6-7-1.3c-1.5,0.2-3.4,3.9-4.9,4.3
		c-7.9,1.9-13.6-3.5-18.6-6.5c-2.6,2.5-4.2,2.8-6.4,7.1c0.2-0.8,1.5-6.7,1.4-8c-0.1-0.6-1.7-1.1-1.7-2.4c-1.5,0.3-3.5-1.2-5-0.9
		c-0.8,0.1-3,1.8-4.5,2.3c-0.9-0.8-1.4-3.9-2.3-4.6c-1.3-1-11.4-4.8-13.8-4.6c-0.2,0-1.1,1.7-1.4,1.8c-6.8,4.1-3.5,3.4-3.8,9.7
		l0.3,4.2c0,0,4.7,0.7,3.2-0.5c1.2,0.2,2.8,0.6,4,0.7c-0.3,1.3-0.5,2.7-0.7,4c-2.3-0.9-1.9,1.2-4.2,0.3c-0.8-0.3-2.5-4.4-3.3-4.8
		c-3-1.2-14.4,0.2-16.8,1.1c-1.1,0.4-0.7,2.2-1.5,2.8c-1.4,0.9-3.6,0.4-5.4,1.1c-0.7,0.2-1.9,2.5-2.5,2.6s-2.4-0.7-3-0.5
		c-0.4-2-1.5-0.2-1.8-1.4c-0.3-0.9,0.5-3.1,0.7-4c-1.7-0.8-0.5-0.5-0.6-2.2c-1.8-0.3-4.5-0.3-6-1.1c-2.8,2.7-6,6.4-9.6,7.6
		c-5.3,1.6-16.9,0.1-20.4,3.6c-1.3,1.3-0.4,2.5-1.7,3.9c-1.6-1-1,1-1.4,1.8c-2.5-1.2-0.5,3-0.5,3c2.5,1.3,3.5-0.5,6.2,0.1
		c0,0.1-0.5,3-0.5,3c-2.6,0.3-2.3-0.1-5.2,0.1c1.3,1.3-3,0.4-3.2,0.5l-0.1-5.2c-0.6-0.5-4.9-0.3-5-0.9c-0.6-1.8,1.1-6.1,1.4-8
		c-10.4-4.4-7-3-13.3,4.8c-0.2,0.3-3.5,2.4-3.5,2.5c-1.4,3.4,0.3,7-0.6,9.3c-0.4,1-3,1.5-3.5,2.4c-1.1-0.8-3.7-0.7-5-0.9
		c0.6-2.3,1.3-4.6,2.2-6.8c-0.8-0.8-1.7-0.9-1.7-2.4c-1.9-0.3-7.2-0.3-7.2-0.3s-3,0.3-3.2,0.5c-1.6,1.1-1.6,5.5-3.2,6.7
		c-2.4,1.6-6.2,0.1-8.6,1.6c-0.8,0.4-0.5,2.6-1.5,2.8c-1.5,0.3-3.6-1.2-5-0.9c1.1-0.3-1.6-2.4-1.6-2.4c0.2-0.3,2.5-2.7,2.5-2.7
		c3.8-0.4,7.2,0.8,9.6-1.4l2.5-2.7c0.6-1.5,0-6.2,0-6.2c-9.5-1.7-15.3-1.6-21.6,4.5c-1,0.9-1.5,3.3-2.7,3.6
		c-3.3,0.8-6.5-1.6-9.3-0.6c-1.4,0.5-7.3,11.8-6.9,15.4c0.1,0.7,2.2,2.4,2.5,3.6c1.8,0.3,4.3,0.3,6.1,1.1c-0.2,0.2-1.6,1.7-1.4,1.8
		c-8,0-8.5,1.6-12.7,7.1c-10.1-1.8-11.8-1.3-15.5,5.6l-0.4,2c-2.3,1.2-6-0.6-8.4,0.5c-5.6,2.6-4.1,17.4-5.6,26.1
		c4.2,2,10.1,5.1,10.9,9.2c0.2,1.2-1,1.9-0.5,3c-2.7,1.2-18.1,10.7-18.8,12.2c-1.5,3-0.2,5.5-0.4,8.3c1.3,0.2,3.1,2.1,5.9,2.1
		c2.2-0.1,3.2-2.7,4.7-3.3c0,0,4.2,2.4,2.7,2.6c0.5,0.6,2.5,1.8,2.7,2.6c0.7,2.5-0.5,4-0.2,7.2c-1.4,0-1.8,1.7-2.5,2.7
		c-1-0.7-1.8-3.2-2.5-3.6c-2-1.1-4.9-0.6-7.1-1.3c-1.6,3.1-6.2,8.5-6.3,12.4c0,0.7,2.4,3.1,2.5,3.6c0.9,3.7-0.9,3.4-1.2,7
		c-1.2-0.9-1.1,1.4-3.2,0.5c-0.2-0.1-0.8-2-1.7-2.3c4.3-0.8-5.4-2.5-2.9-1.6l-1.7,3.8c3.6,3.2,10.7,6.3,12.7,10.6
		c1.1,2.4,0.1,5.6,1.8,7.6c2.7,3.2,6.9,2.3,7,7.5c0.1,6-4.2,6.9-4.1,11.7c0,2.6,4.4,4.9,5,7.2c0.4,2.8,0.6,5.6,0.6,8.4
		c-0.4,4.6-3.9,15.7-2.7,21.4l1,0.2c2.8,2,4,8,6.7,9.5l2,0.4c0.4,0.5-0.1,2.7,0.5,3.2c2,1.5,4.8,0.6,6.9,2.3
		c1.7,1.4,7.9,14.3,3.2,17.2c4.3,4.8,14,9.2,11.3,18.7c0,0-3.4,3.7-3.9,4.5c1.4-0.5,0.5,1.7,2.8,1.6c1.2-0.1,1.9-2.7,2.7-3.7
		c0.8,0.1,3.3,1,4,0.7c1.8,2.4,8.9,10,1.3,10.6c-0.6-1-1.4-4-2.3-4.6s-3.1-0.1-4-0.7c-1.1,1-2.3,1.8-3.6,2.5c0,0-0.6,3.7,0.6,2.2
		c0.3,2.4,0.2,1.7,0.3,4.2c2.2-0.6-0.2,7.2-0.2,7.2c6.5-0.9,8.7-1,15.5,0.7c0.2-0.3,1.2-1.9,1.4-1.8c1-0.1,4.8,1.6,3.9,1.7
		c1.1,2.7,2.4,5.4,3.8,7.9c-4.9,0.6-10.3-0.2-12.2,4.1c-0.2,0.5-0.2,2.6-0.5,3c-0.8,0.9-4,1.2-4.6,2.3c-0.8,1.3-0.1,3.7-0.9,5.1
		c2-0.6,3.4,0.5,5.2-0.1c2-0.8,4.1-4.1,6.1-5.2c3.9-2.1,7.5-3.1,11.3-5.3c1.8,3.8,3.7,9.1,6.1,12.5c1,1.5,5,3.4,5.4,5.1
		c0.7,3.1-1.9,3.5-2.1,5.9l1.5,3.4c0.2,7.7-0.5,5.6,1.1,11.7c1.2-0.2,2.8,0.8,4,0.7c2.9-0.3,6.8-4.2,9.3-5.7
		c6.4,8.2,11.9,14.9,25.2,10.7c-1.7,5.9-3.4,11.7,1.6,14.9c1.5,0.9,3.1,0.3,3.9,1.7c0.5,1.1,1.2,8.4,1.5,9.6
		c11.8,0.3,14.5,2.2,21.5,8c1.7-0.7,6.6-4.5,9-3.6c0,0-1.6,4.8-2.1,5.9c0.6,0.6,5.1,4.3,5.4,5.1c0.5,1.7-1.2,4.2-1.1,6.1s4,5.8,4,7
		c0,2.4-2.1,3.5-3.1,5.7c2.9-0.1,7.4-1.3,10.4-0.2c2.8,0.9,4.2,5.6,6,7.3c1.4,1.3,3.2,0.5,4.9,1.9c2.5,2.1,5.7,13.6,6.3,17.8
		c4-0.6,11.3-1.1,15.7-0.4c1.3,0.2,3.1,2.6,5.9,2.1l0.2-1c1.8-0.6,2.4-2.9,3.7-3.5c1.8-0.9,3.1,0.6,5.2-0.1c1.3,10.5-2,6.2,7.5,10.7
		c0.3-0.3,2.1-2.6,2.5-2.7c1.2-0.2,1.8,0.9,3,0.5c0.7,0.8,1.4,3.9,2.3,4.6c2.5,2,10.7,3.6,13.8,4.5c0,2.3-1.6,4.7-1.2,7.1
		c0.8,4.6,18.9,11.4,24.6,13.7c0.1,1.8-1,3.2-0.9,5c0,0.2,7.2,10.5,7.5,10.7c8.2,5.6,9.6-1.2,13.8-1.7c8.5-1.1,10.6,4.2,13.4,6.5
		c1.5,1.2,3.2,0.7,4.9,1.9c0.8-1.4,1.9-1.1,3.4-1.5c0.2-5.8,1-8.8,1.1-12.3c1.5,0.7,2.5-0.1,4.2-0.3c0.6,1.7,2.1,8,3.7,8.9
		c5.3,3.2,13.5,0.4,17.5,1c6.8,0.9,7.2,3.6,10.2,7c10.2-2.5,10.3,1.6,21.5,1.7c1,0,6-2,6.5-2c3.6,0.1,6.7,2.6,8.9,2.6
		c1,0,3.4-2,4.5-2.3c-0.1-1.9,1-3.2,0.9-5c0-0.4-7.5-16.5,4.9-10.6c0.4,0.2,1.8,3.3,2.5,3.6c2,0.7,3.3-0.6,4.2-0.3
		c-1-1,1.5-4.2,1.9-4.8c-1-0.8-0.1-1.9-0.7-2.2c-1.6-1.2-3.2-1.2-4.9-1.9c0.5-2-0.6-3.2-0.3-4.2c0.9-3.6,7.3-4.3,9.5-6.6
		c1.6-1.8,1.5-4.8,3.2-6.7c1.9-2.3,14.7-5.4,19.3-3.9c0.5,0.1,2.3,3.4,2.5,3.5c1,0.6,3.2,0,4,0.7c1.2,1,1.8,4.9,3.2,5.8
		c0.7,0.4,2.3-0.1,3,0.5c2.8-11.3,1.9-8.7,10.6-7.5c-0.6,2.6-0.5,6.5-1.6,9.1c-0.1,0.1-3.2,1.4-3.4,1.5c0.7,7.1-1.2,4.8,2.5,9.8
		c-1.2,0.1-1.9,1.6-2.4,1.7c-1.7,0.2-3.3-1-5-0.9c1.5,0.9-4,0.3-4.2,0.3c0-1.1-0.2-2.2-0.5-3.2c-3.7-8.3-2.5-7.7-14.9-9.9
		c-1,1.8-1.6,5.1-3.2,6.7c-1.4,1.3-4.9,1-6.6,2s-1.1,0.8-2.5,2.7c0,0-0.5,2.9-0.5,3c0.7,0.1,3.5,0.2,4,0.7c-0.1,0.3,0.1,3.6,0.2,5.2
		c-5-0.9-1,8-0.6,9.3c-3.8,2-7,4.2-10.4,6.5c0.2,1.9,0.9,2.4,0.3,4.2c9.4,8,11.6,7.3,19-1.9c0.5,0.9,3.2,1.7,3.7,2.7
		c0.7,1.4-0.3,2.8,0.3,4.2c2.9,7.3,8.4,5,13.9,3.5c0.5-7.8,1.4-9,3.4-14c0.9,0.7,3,0,4,0.7c1.4,0.9,1.9,6,4,6.9
		c7.3,3.2,9.3-2.3,13.1-3.9c1.9-0.9,3.2,0.4,5.2-0.1s4.1-3.3,5.9-4.2c0.7,0.5,2.2,0.2,3,0.5c1.5,0.6,2.2,4,3.3,4.8
		c3.2,2.2,5.3,1.1,9.1,1.6c0.8-1,1.6-1.9,2.5-2.7c2.3-5.2-1.7-8.7,2.9-10.9c0.9,0.7,2.9,0.1,4,0.7c1.5,0.8,1.1,4.5,2.2,5.6
		c4.7,4.9,9.8,1.7,14.4,0.5c0.4-3,1-6.1,1.6-9.1c-2.1-1.3-7.8-4.2-8.2-6.6c-0.2-1.2,1-2.9,0.7-4c2.5,1.2,2.5-1.3,5,0.9
		c3,2.5,0.2,6.8,7,7.4c4,0.4,8.5-3.3,10.4-6.5c0,0,2.7-0.9,1.3-1.8s-2.9-4.6-1.8-7.6c0.1-0.5,3-1.2,3.3-1.5c2.9-2.7,2.8-5.3,4.8-9.6
		c-0.8-0.8-1.7-0.9-1.7-2.4c-1-0.1-2-0.3-3-0.5l0.5-3c12.7,8.8,15.1,3.4,28.7,1.9c0.6-1.8,1.1-5.7,2.4-7.9c0.6-1.1,4-1.9,4.7-3.3
		c0.9-1.9,0.3-4.1,1-6.1c-0.8-0.9-1.6-0.9-1.7-2.4c-1.3-0.2-3.9-0.1-5-0.9c-0.6-0.4-1-4.1-1.3-4.4c0.9,0.2,2.6-1.1,3.4-1.5
		c4.9,4.7,2.8,3.9,10.5,5c0.2-2.5,1.5-1.4,1.7-3.8c0.1-1.1-2.3-4.2-2.3-4.6c-0.1-3.7,2.4-4.2,3-5.7c0.8-1.9,0.2-4.3,1-6
		c0.9-2.1,4.5-3.5,6.1-5.2c-0.3-0.8,0.5-2.3,0.5-3c-0.2-2.4-4.5-4.8-6.2-6.3c3.9-8,7.4-10.2,10.7-19.9c-0.8-0.4-2.4-2.4-2.7-2.6
		c-5.8-2.4-9.8,3.2-13.2,4.9c-0.9,0.8-1.8,1.7-2.5,2.6c-0.1-2.1,0-7-0.3-10.4c-0.1-0.9-2.3-3.7-2.3-4.6c0.1-6.1,6.1-5.9,7.9-10
		l0.2-1c-0.3,0.7-0.7-3.2-0.3-4.2c0.6-1.6,10.8-14,7.1-17.4c-5.3-4.9-10,0.4-13.6,0.7c-0.6,0-2.5-0.7-3-0.5
		c-0.1-1.1-1.6-1.9-1.7-2.3c-0.6-3.4,1.5-8.7,2.1-12.1c0.2,2,1.2-0.8,1.2-0.8c-2.2-8.2-1.8-6.1-10.2-7c-1.5,3.3-5.8,15.9-9.1,17.1
		c-2.6,0.9-5.7-1.1-8.2-0.4c-0.5,0.1-3.3,2.4-3.5,2.5c-2.2,0.1-2.7-1.8-3.8-1.7c1.2,0.2-0.5-3.2-0.5-3.2c0.3-3.7,5.4-9.3,6.1-11.4
		c1.2-3.9-0.3-7.7-0.3-10.4l1.5-2.8c1.8,0.7,4.2,0.1,6,1.1c4.4,2.4,1.3,11.1,9.8,9s5.3-11.6,3.9-16.9c-5.3-0.5-7.6-1-12.2-1.1
		c3.1-6.5,2.4-5.9,2.1-12.1c-1.6-0.8-3.2-1.8-4.7-2.9c0,0-7.8,5.3-6.2,6.1c4.1,2.1-0.2,13.2-2.8,16.1c-1.9,2.1-7,2.8-9.9,3.4
		c3-12.7,1.4-10.2,11.2-16.7c-0.6-3.9-0.1-4.8-0.6-8.4c0.6-0.3,3-0.9,3.3-1.4c1.2-1.8-0.3-3.1,1.7-3.9c0,0-1-5.6-1-6.4
		c0.9,0.8,2.9,0.9,3.8,1.7c0.5,0.5,0.9,3.1,1.5,3.4c1,0.6,5,0.1,4.2-0.3c0.3-0.6,3.1-1,3.4-1.5c1.6-2.8,0.3-8.2,1.9-11.1
		c1.2-2.1,6.4-0.2,6.4-7.1c0-2.4-3.7-5.4-5-7.1c4.1-6,3.7-3.4,2.7-9.9c-0.7-4.8-1.2-9.9-5.1-12.3c-10.2-6.3-12.8-0.3-13,9.1
		c-0.8,0.4-5.2,1.4-5.5,2.1l-0.3,2l-2-0.3c-0.3-2.8,0.6-4.6-1-6.4l-0.8-1.2c0.6-0.4,0.1-2.4,0.5-3l1,0.2c4.2-1.2,6.4-4.8,9.5-7.6
		c-9.5-3.6-8.8-8-10.1-19.4c2.6-0.8,8.3-3.6,10.9-3.2c5.3,0.7,3.6,3.5,5.3,5.1c1.6,1.4,3.1,0.3,4.9,1.9c1.4-0.7,3-1.9,4.5-2.3
		c-0.3-3.1,1.1-4.9,0.2-7.2c-0.1-0.2-3.7-2.7-3.7-2.7c-0.3-3.9,3.4-3.2,3.4-7.7c0-2.3-3.3-4.2-4.2-5.9c-0.7-1.4,0.2-2.8-0.3-4.2
		c-1.2-3.1-5.4-5.4-8-7.6c0.8-1.8,0.2-4.2,1-6c0.5-1,4.4-2.9,4.8-4.3c1.5-5.5-3.8-9.5-7.3-11.7c-1.9-1.2,3.2-1.7,4.4-1.3l1.7,2.4
		c8.5,4,8.3-5,8.9-9.8c-1.2-0.5-1.1-2.1-1.7-2.4c-4.6-2.6-11.9,1.9-14.9,2.5l-1.5-3.4c0.3-0.6,3.1-1,3.4-1.5c0.8-1.6,0.7-4.2,1-6
		c1.4,0.9,0.8-1.6,3.2-0.5c0.4,0.2,1,2.9,1.5,3.3c4.6,4.1,7.1,2,11.4,0c-2.3-11-1.8-15-14.7-10.9c0.2-1,0.4-2,0.5-3
		c4.3-1,6.2-0.4,8.9-3.6c0.3-0.4,1.6-0.5,2.2-0.7c-0.3-1.2,0.9-2.9,0.7-4c-0.3-2.1-3.9-4.7-4-6.9c-0.3-6,2.6-10,2.8-16.1
		c0.9,0.7,2.3-1.3,4,0.7c1.9,2.2-1.4,10.2-2.4,14.1c2,0,3.5,1.9,7,1.3c0.3-0.1,1.1-1.8,1.3-1.8c0.2-0.9,3.3-2.1,3-5.7
		c0-0.3-1.7-2.7-1.5-3.4c0.5-1.4,4.9-1.7,5.4-7.3c0.3-3.4-3.3-3-0.8-7.4c0.1-0.3,3.1-2,3.5-2.5c0,0,0.2-2.6-0.8-1.2
		c-0.6-0.4-0.5-3.9-1.3-4.3c-1.9-1.1-5.8-1-8-1.4l0.3-2l1,0.2c0.3-0.7,1.3-4.5,1.9-4.8c5-3,8.9,2.1,14.2,1.5
		c0.6-0.1,2.5-2.2,3.5-2.5c0.2-0.9,0.2-3.2,0.7-4c-2.3-4.3-5.6-8-9.5-11c0.2-1.2,1.5-4.9,1-6c-0.9-2.2-3.1-1.2-4.7-2.9
		c-2-2.1-2-7.7-2.2-10.8c-1.1-0.4-1.3-2.1-1.7-2.3c-11.8-6.6-9.6,8.8-8.6,14c-1.9,0.2-1.9-0.3-3.2,0.5c-4.4,2.4-3.8,2-9.2-0.7
		c0.9-1.1-1.8-1.7-0.7-2.2c6.2-2.4,5-9.3,6.1-17.5l3.2-0.5c6.5-8,2.3-8.2-6.7-9.5c-1,10.2,0.9,7.6-7.5,8c-4-8.6-5.7-10.4-15.5-12.1
		c-0.5,0.8-1.9,3.6-2.9,4.7c0.3,0.7,2.4,3.1,2.5,3.6c-0.6,0.3-0.7,4.3-0.9,5c-2.9,0-4-0.7-6.2-0.1c-0.5-5.9-0.1-14.8-1.8-19.9
		c3.3-1.8,5.5-3,8.2-5.8c-0.6-1.5-0.1-3.7-0.2-5.2c-0.7-0.3-5-1.7-4-0.7c-3.3,1.1-3.2-0.3-5.5,2.1c-1.2,1.8-2.2,3.7-3,5.7
		c-1.1-0.5-3.8-1.8-3.8-1.7c-0.5-0.9-0.8-2.7-1.5-3.4c-1.2,0.5-1.3-2-1.7-2.4c8.2-2.8,8.2-1.5,7.9-9.9c-1.2-0.4-1.1-2.1-1.7-2.4
		c-1.2-0.7-4.8,0-4.2,0.3l-2-0.4c-1.6,0.2-2.1,4.2-3.9,4.5c-1.1,0.1-2.9-1.1-4-0.7c-0.4-4.9-1.1-12.1-4.8-14.3
		c-0.2-0.1-0.5-0.2-0.8-0.3L771.4,1747.1z M1180.9,1870.5c-1.1,1.1-3.9,1.8-4.7,3.3c0,0.1,0.2,3,0.3,4.2c-1.1,0-1.9,1.6-2.3,1.6
		c-2.8,0.4-6.2-0.4-8.2-0.4c-2.3,9.2-5.7,13-6.5,20.5c-2.7-8.2-5.6-8.1-12.6-4.3c-0.8-1.3-1-4.6-2.2-5.5c-2.9-2.4-17.3-4-22.6-6.1
		c-0.4,1-2.2,1.2-2.3,1.7c-1.9,3.4-1.7,10.1-2.4,14c-0.2,0-2.2,0.7-2.2,0.7c-0.4-1.7-1.5-2.3-2.4-3.6c4-8.1,3.7-20-7.8-14.8
		c-1.4,0.6-1.6,3.8-2.8,4.7c-1.1,0.7-4.2,0.8-5.3,1.1c0.2,2.9-1.1,4.7-0.2,7.2c1.3,3.9,10.1,4.9,10.8,9.2c0.3,1.8-1.2,3.1-0.8,5
		c-1-0.3-2-0.5-3-0.5c-2.6-3.4-3.4-5.4-4.4-10.1c-3.3-1.1-9-1.4-12.8-3.3c-0.3-0.2-1.9-3.3-2.4-3.5c-3.7-1.3-5.5,1.5-9.2-0.6
		c-0.4-0.2-0.7-2-1.7-2.4c5.8-2.1,5.2-1.6,5.7-9.3l-2.8-1.6c-1,1-2.4,0.6-3.3,1.5c-0.7,0.7-1,4.4-1.8,4.8c-2.7,1.5-5.9-1.5-8.5,1.6
		c-1.1,1.2-4.2,9-4.9,10.5c-18.3-9.1-13.7,6.8-25.5,4.8c0,0-2.3-1.4-2.8-1.6l0.3-2c1.4-0.2,3.6,0.6,5,0.9c-0.4-0.4,1.1-1.6,1.3-1.8
		c-0.9-1-1.4-0.8-1.7-2.4c-3.9-1.4-9.7-4.3-12.6-4.3c-1.9,0-5.2,3.3-6.9,3.9c-4.1,1.5-8.1,0.6-12.7,1.9c-0.8,0.2-2.5,2.4-3.5,2.5
		c-3.5,0-3.8-2.7-6.8-2.3c-0.9,0.8-1.7,1.7-2.5,2.7c-4.4,3.9-3.9,6.3-2,12c-2.4,0.1-4.7,0.3-8.4,0.6c0.7-1,0.1-3,0.7-4
		c0.2-0.3,3-1.3,3.3-1.5c-0.3-1.8,1.2-3.2,0.9-5c-0.1-0.6-2.2-2.5-2.5-3.5c-2.2,0.5-4.4-0.1-6.2-0.1c-1.1,3.9-3.4,10.7-4.5,14.7
		c-3.1-0.6-2.8-1-6-1.1c0.3,1.5-1.1,3.4-0.8,5s4.9,4.1,6.3,5.3c-0.1,0.2-1.4,5.5-1.7,3.8c-0.8,0.9,0.1,1.9-0.5,3
		c-0.3,0.5-2.8,1.7-3.5,2.5l-2-0.4c-0.9-3.4-1.2-5.9-2.7-8.7c-3.5-6.8-3.3-3.1-10.1-7c-0.3-0.2-1.2-3.2-1.5-3.4
		c-1.6-0.9-3.4,0-5-0.9c-0.7,1-3.2,1.8-3.5,2.5c-1.5,2.7-0.8,5.9-2.4,7.9c-2.6,3.1-7.1,0.9-10.7,2.2c-4.3,1.6-7.8,10-9.7,14.8
		c-7.3-5.2-2.5-4.3-11-2c0,1.8-0.9,2.2-1.7,3.8c3.6,3.7,3.7,4,8.3,5.6c-0.4,0.1-0.8,3.6-1.7,3.8c-1.2,0.3-3.7-0.7-5-0.9
		c-0.8,1.1-3.3,2.5-3.7,3.5c-1.7,3.9,0.4,8.5,0.1,11.4c-0.2,2-1.6,2.8-1.7,3.8l-2-0.4c-2-1.1-2.8-7.2-4.8-8.1
		c-3-1.5-3.7,0.5-6.2-0.1c-4.1,8.2-4.6,7.4,0.7,13.6c-2.3,1.5-1.8,13.2-1.9,17.3c-1.2-1.8-3-3.2-4.3-4.9c2,0.4-5.4-1.8-3-0.5
		c-1.3,0.8-2.9-0.5-4.2,0.3l-0.3,2c-4.7,8.5,1.1,10.6,2.9,19.2c-0.4,0.2-0.3,2.6-0.5,3c-0.7,1.2-5.8,1.7-6.7,3c-0.6,0.8-0.3,3-0.7,4
		s-3.7,4.2-3.9,4.5c-0.8,1.8-0.2,4.2-1,6c1.5,1.9,5,5.1,6,7.3c0.8,1.8,0,3.8,1.2,5.3c1.2,1.7,3.5,2.1,4.5,3.9
		c2.3,4.6,3.1,15.5,3.6,21.4c1.4,0.6,3.5,0.7,4.8,1.9c-0.5,0.3-1.2,2.4-1.5,2.9c-1.2,1.1-4.6,0.9-5.5,2.1c-2.3,2.8-1.5,11-2.8,16.1
		c1.7,1.1,0.5,0.2,0.7,2.2c4,0.8,6.1,1.8,11,2c-0.6,1-0.2,2.9-0.7,4c-1.4,3-7.7,4.3-4.9,10.5c0.4,0.9,3.6,1.8,3.7,2.7
		c0.6,5.1-4.7,6.9-0.7,10.2c1.1,0.9,5.2,2.7,6.7,3.3c-1,3.5-3.5,8-2.1,12.1c0.3,0.7,2.6,1.8,2.7,2.5c0.2,2.5-1.9,5.6-1.4,8.1
		c0.1,0.6,1.4,0.8,1.8,1.4c2.3,2.9,5,3,7.4,5.5c0.8,0.9,0,1.9,0.5,3.2c2.8,7.1,8.8,4.5,14,2.5c-1.3,5.3-2.8,10.6-4.8,15.8
		c0.7,0.3,5.7,2.6,4.8,1.9c3.1-1.3,6.2-0.1,7.9-3.8c0.4-1,0-3.2,0.7-4s3.7,0.2,4.2-0.3c0.2,0.9-0.6,2.1-0.5,3
		c0.1,0.6,2.4,3.2,2.5,3.6c0.1,1.6-2.3,5.5-2,5.8c-0.9,0.4-1.7,0.9-2.3,1.7c-0.1,1-0.3,2-0.5,3c4.6,3.1,5.8,3.9,13.7,4.5
		c-0.1,0.6-1.2,4.7-0.8,5c-1,1.1-3.2,1.5-4.5,2.3c0.2,1-0.5,3-0.7,4c1.3,0.8,1,1.9,1.5,3.4c5.6-0.1,6,0.1,9.5-1.4
		c1.1-0.5,4.7-1.3,5.5-2.1c2.2-2.3,1.3-5.4,4.2-6.5c1.4-0.5,3.5,1,5,0.9l2.3-1.6c5.4-0.3,3.3,1,6.9,2.2c-0.8,1.5-0.7,4.3-1,6
		c-3,0.5-6.1,1-8.5,1.6c-0.1,1.7-0.2,7.2-0.2,7.2c1.5,0.5,2.9,2.1,5.9,2.1c1.4,0,4.2-2.5,5.7-3.1c6.9-2.9,10.1,0.2,17.7-1
		c0.4-0.1,1.2-1.7,2.3-1.7c-0.1-2.3,1.8-4.9,1.2-7l-1-0.2c-1.8-0.3-3.3-3-4.5-3.9c0.3-1.9,1.1-4.2,1-6.1c1-0.6,2-2.8,3.5-2.5l1,0.2
		c1.5,2.1,3.2,7.1,5.8,8.3c1.1,0.5,3,0.1,4,0.7c-1.8,3.4-1.7,4.9-3.5,8.7c3.3,2.2,8.8,6.7,14.7,4.7c5.3-1.8,2.6-6.3,2.5-8.9
		c0-2.7,1.8-3.6,1.9-4.9c6.6,0.9,13.2,0.6,19.7-0.6c0.3-0.1,1-1.8,1.3-1.8l2,0.4c1.9-2.2,0.9-5.8,2.6-8.9c1.1-2.1,4.7-2.6,5.9-4.1
		c1.4-1.8,0.6-3,1.8-4.8c4.3,0.9,13.4,3,18.3,1.2c2.2-0.9,3.9-4.1,6-5.2c1-0.5,1.9,0.7,3,0.5c6.9-1.4,3.6-8.7,2-12
		c3.6-0.3,10.3-0.2,11.9-3.1c0.8-1.5,0-4.7,1-6l1,0.2c4.3-1.4,7.8-4.9,11.5-7.3c0.9,0.7,2.9,0.1,4,0.7c2.3,1.3,2,6.6,8.3,5.6
		c0.8-0.1,2.3-2.2,3.5-2.5c-0.7-1.7,0.5-3.7-0.2-5.2c-0.4-0.7-5.1-3.8-5.3-5.1s1-1.9,0.5-3c9.8-0.8,11.5-0.1,12.2-11.3
		c3.8-1.5,7.1-1.5,10.9-3.2c1.2-0.5,1.2-2.1,2.5-2.7c0.1-4.8-0.1-11.3,4.2-12.7c7.9-2.6,9.2,4,12.5,5.3c4,1.6,5-0.7,7.3-0.8
		c0.2-2.5,1.5-1.4,1.7-3.8c0.1-1-1.7-3.6-1.2-5.4c0.1-0.5,3.4-2.3,3.5-2.5c0.6-1.1-0.2-2,0.5-3c-1.5-1-3.9-2.8-5.5-4.1
		c4-5.8,4-8,2.6-15.1c2.9,2.4,6,4.7,9.2,6.8c-0.2,0,5,1,6,1.1c1-1.6,5.7-10.6,7-11.1c2.9-1.4,6.3,0.8,9.3-0.4c2.3-0.9,1.8-5.5,0.8-5
		c0.7-1.5,0.1-3.6,0.8-5c0.2-0.4,2-0.6,2.3-1.6c7.8,2,9,1.6,14.3,0.5c2-7.1,2.6-10.1-1.6-14.8c-0.5-0.5-2.6-1.9-2.7-2.5
		c-0.4-2.3,1.2-4.7,1.2-7c1.7-0.2,1.4,1.1,2.2-0.7c1.5,1,3.4-0.1,4.9,0.9c1.2,0.8,0.1,4.4,1.2,5.4c5.2,5.1,13.1,3.6,15.6-1.3
		c1.8-3.7,0.1-3.9,0.2-7.2l-2-0.3l2.3-7.9c-2-0.1-4-0.5-6-1.1c-0.3-1.8,1.2-3.2,0.8-5c-0.1-0.7-2.4-1.9-2.7-2.6
		c-0.7-1.9,0.4-3.1-0.2-5.2c1.2-0.4,2.3-2.4,3.5-2.5c0.7,0,2.2,0.9,3,0.5c2.1-1,3.9-5.8,6.1-6.1c2.4-0.4,6.5,1.3,9,1.6
		c2.5-5.1,5-9.2,7.4-13.1c-0.7-0.7-0.5-3.7-1.3-4.4c-1.8-1.5-4.3-1.9-5.7-3.1c-5.2-4.8,7.7-5.5,10.5-7.4c1.1-0.8,0.5-3.1,1.7-3.8
		c-1.1-0.4-13.1-5.2-13.5-5.5s-2.1-8.4-2.4-9.7c5.2-0.8,6-1.7,9.8-3.4c-1.2-1.6-0.7-4-2.2-5.5c-1.2-1.3-2.2-0.9-3.8-1.7
		c0.1-0.2-0.1-3.8-0.2-5.2c3.4-0.9,5.8-1.5,8.7-2.6c-0.3-1.5,1.1-3.5,0.8-5c-0.1-0.7-2.4-1.9-2.7-2.5c-0.9-2.4-1.1-6.4-1.6-8.6
		c-0.8,1.6-0.5-3.2-0.5-3.2c4.7-1.7,2.6-8.1-2.6-8.7l-2.3,1.7c-2.1,0.6-3.5,0.7-5.3,1.1c-0.1,0.2-1.2,6.5-1,6
		c0.4,1.3,2.2,2.5,2.5,3.6c0.6,2.3-0.3,4.2,0,6.2c-1.9-2.4-3.4-3.7-5.1-6.1c-1.8,0.3-3.2-1.2-5-0.9c-1.3,0.2-3.5,4.1-4.8,4.3
		c-1.8,0.2-3.2-1.2-5-0.9l-0.7-2.2c-0.7,1.4-0.3-4-0.3-4.2c0.3-0.2,3.2-1.2,3.3-1.5c1.2-2.4-0.6-4-0.2-5.2l-2-0.4
		c-1.4,0.2-3.5,4.6-5,5.3c-0.8,0.3-2.3-0.6-3-0.5s-3.8,2.2-4.5,2.3c-6.3,0.8-11.8,0-19.3-1.4c-2.4,3.4-2.2,3.3-4.5,8.5
		c-0.1,0-2.9-0.6-3-0.5c0.1-3.7,0.4-7.5,0.9-11.2c2.4-0.4,3.2,0.1,6.1,0.1c0.4-4.6,1.4-9.9,0.6-15.4c4.6,1.7,4.9,2.4,10,1.8l1.3-1.8
		c1.8-0.4,5.1,0.9,7,1.2c0-0.9,1.7-1.7,1.7-3.8c-0.1-4.3-5.2-9.2-7.1-12.6c-1.3,1.3-0.4,2.5-1.7,3.8c-1,0.9-1.9-0.2-3.2,0.5
		s-2.7,3.4-3.8,4.4c-0.1-0.3-2.6-1.2-2.8-1.5c-0.7-1-0.2-2.8-0.3-4.2c-1-0.4-1.3-2.2-1.7-2.4c-3.5-2-6,0.3-8.3,0.6l-0.8-1.2
		c1.4-6,0.8-6.8,0.9-11.2c-0.8-0.1-3.4-0.2-4-0.7L1180.9,1870.5z"/>
</g>
</svg>
